PowerlineExtraSymbols.ufo
<glyph name="uni2630" format="2">
  <advance width="1200"/>
  <unicode hex="2630"/>
  <note>
uni2630
</note>
  <outline>
    <contour>
      <point x="120" y="343" type="line"/>
      <point x="120" y="151" type="line"/>
      <point x="1080" y="151" type="line"/>
      <point x="1080" y="343" type="line"/>
    </contour>
    <contour>
      <point x="120" y="727" type="line"/>
      <point x="120" y="535" type="line"/>
      <point x="1080" y="535" type="line"/>
      <point x="1080" y="727" type="line"/>
    </contour>
    <contour>
      <point x="120" y="1111" type="line"/>
      <point x="120" y="919" type="line"/>
      <point x="1080" y="919" type="line"/>
      <point x="1080" y="1111" type="line"/>
    </contour>
  </outline>
</glyph>
<glyph name="uniE0A0" format="2">
  <advance width="1200"/>
  <unicode hex="E0A0"/>
  <note>
uniE0A0
</note>
  <outline>
    <contour>
      <point x="262" y="-140" type="line"/>
      <point x="460" y="-140" type="line"/>
      <point x="460" y="156" type="line" smooth="yes"/>
      <point x="460" y="207"/>
      <point x="470" y="247"/>
      <point x="489" y="276" type="curve" smooth="yes"/>
      <point x="505" y="302"/>
      <point x="536" y="327"/>
      <point x="581" y="352" type="curve" smooth="yes"/>
      <point x="634" y="383" type="line" smooth="yes"/>
      <point x="686" y="412"/>
      <point x="724" y="447"/>
      <point x="750" y="489" type="curve" smooth="yes"/>
      <point x="775" y="531"/>
      <point x="788" y="591"/>
      <point x="788" y="669" type="curve" smooth="yes"/>
      <point x="788" y="906" type="line"/>
      <point x="938" y="906" type="line"/>
      <point x="729" y="1115" type="line"/>
      <point x="519" y="906" type="line"/>
      <point x="669" y="906" type="line"/>
      <point x="669" y="704" type="line" smooth="yes"/>
      <point x="669" y="651"/>
      <point x="660" y="608"/>
      <point x="641" y="575" type="curve" smooth="yes"/>
      <point x="623" y="543"/>
      <point x="592" y="514"/>
      <point x="549" y="490" type="curve" smooth="yes"/>
      <point x="440" y="430" type="line" smooth="yes"/>
      <point x="385" y="399"/>
      <point x="344" y="367"/>
      <point x="318" y="335" type="curve" smooth="yes"/>
      <point x="281" y="289"/>
      <point x="262" y="229"/>
      <point x="262" y="156" type="curve" smooth="yes"/>
    </contour>
    <contour>
      <point x="262" y="478" type="line"/>
      <point x="460" y="587" type="line"/>
      <point x="460" y="1280" type="line"/>
      <point x="262" y="1280" type="line"/>
    </contour>
  </outline>
</glyph>
<glyph name="uniE0A1" format="2">
  <advance width="1200"/>
  <unicode hex="E0A1"/>
  <note>
uniE0A1
</note>
  <outline>
    <contour>
      <point x="751" y="696" type="line"/>
      <point x="751" y="796" type="line"/>
      <point x="440" y="796" type="line"/>
      <point x="440" y="1376" type="line"/>
      <point x="303" y="1376" type="line"/>
      <point x="303" y="696" type="line"/>
    </contour>
    <contour>
      <point x="897" y="635" type="line"/>
      <point x="756" y="635" type="line"/>
      <point x="756" y="516" type="line"/>
      <point x="775" y="192" type="line"/>
      <point x="556" y="635" type="line"/>
      <point x="410" y="635" type="line"/>
      <point x="410" y="-44" type="line"/>
      <point x="549" y="-44" type="line"/>
      <point x="549" y="103" type="line"/>
      <point x="532" y="397" type="line"/>
      <point x="749" y="-44" type="line"/>
      <point x="897" y="-44" type="line"/>
    </contour>
  </outline>
</glyph>
<glyph name="uniE0A2" format="2">
  <advance width="1200"/>
  <unicode hex="E0A2"/>
  <note>
uniE0A2
</note>
  <outline>
    <contour>
      <point x="325" y="55" type="curve" smooth="yes"/>
      <point x="875" y="55" type="line" smooth="yes"/>
      <point x="973" y="55"/>
      <point x="1021" y="96"/>
      <point x="1021" y="180" type="curve" smooth="yes"/>
      <point x="1021" y="790" type="line" smooth="yes"/>
      <point x="1021" y="880"/>
      <point x="979" y="924"/>
      <point x="896" y="924" type="curve"/>
      <point x="896" y="1195" type="line" smooth="yes"/>
      <point x="896" y="1276"/>
      <point x="867" y="1344"/>
      <point x="809" y="1397" type="curve" smooth="yes"/>
      <point x="753" y="1449"/>
      <point x="683" y="1475"/>
      <point x="600" y="1475" type="curve" smooth="yes"/>
      <point x="517" y="1475"/>
      <point x="447" y="1449"/>
      <point x="391" y="1397" type="curve" smooth="yes"/>
      <point x="333" y="1344"/>
      <point x="304" y="1276"/>
      <point x="304" y="1195" type="curve" smooth="yes"/>
      <point x="304" y="924" type="line"/>
      <point x="221" y="924"/>
      <point x="179" y="880"/>
      <point x="179" y="790" type="curve" smooth="yes"/>
      <point x="179" y="180" type="line" smooth="yes"/>
      <point x="179" y="96"/>
      <point x="227" y="55"/>
    </contour>
    <contour>
      <point x="600" y="1359" type="curve" smooth="yes"/>
      <point x="646" y="1359"/>
      <point x="684" y="1345"/>
      <point x="712" y="1315" type="curve" smooth="yes"/>
      <point x="740" y="1285"/>
      <point x="754" y="1246"/>
      <point x="754" y="1195" type="curve" smooth="yes"/>
      <point x="754" y="924" type="line"/>
      <point x="446" y="924" type="line"/>
      <point x="446" y="1195" type="line" smooth="yes"/>
      <point x="446" y="1246"/>
      <point x="460" y="1285"/>
      <point x="488" y="1315" type="curve" smooth="yes"/>
      <point x="516" y="1345"/>
      <point x="554" y="1359"/>
    </contour>
    <contour>
      <point x="658" y="550" type="curve"/>
      <point x="658" y="264" type="line"/>
      <point x="542" y="264" type="line"/>
      <point x="542" y="550" type="line"/>
      <point x="495" y="571"/>
      <point x="471" y="604"/>
      <point x="471" y="648" type="curve" smooth="yes"/>
      <point x="471" y="679"/>
      <point x="484" y="704"/>
      <point x="509" y="726" type="curve" smooth="yes"/>
      <point x="534" y="748"/>
      <point x="565" y="758"/>
      <point x="600" y="758" type="curve" smooth="yes"/>
      <point x="635" y="758"/>
      <point x="666" y="748"/>
      <point x="691" y="726" type="curve" smooth="yes"/>
      <point x="716" y="704"/>
      <point x="729" y="679"/>
      <point x="729" y="648" type="curve" smooth="yes"/>
      <point x="729" y="604"/>
      <point x="705" y="571"/>
    </contour>
  </outline>
</glyph>
<glyph name="uniE0B0" format="2">
  <advance width="1200"/>
  <unicode hex="E0B0"/>
  <note>
uniE0B0
</note>
  <outline>
    <contour>
      <point x="1322" y="942" type="line"/>
      <point x="-122" y="2294" type="line"/>
      <point x="-122" y="-412" type="line"/>
    </contour>
  </outline>
</glyph>
<glyph name="uniE0B1" format="2">
  <advance width="1200"/>
  <unicode hex="E0B1"/>
  <note>
uniE0B1
</note>
  <outline>
    <contour>
      <point x="-55" y="2325" type="line"/>
      <point x="-191" y="2210" type="line"/>
      <point x="1129" y="972" type="line"/>
      <point x="-191" y="-266" type="line"/>
      <point x="-55" y="-381" type="line"/>
      <point x="1391" y="972" type="line"/>
    </contour>
  </outline>
</glyph>
<glyph name="uniE0B2" format="2">
  <advance width="1200"/>
  <unicode hex="E0B2"/>
  <note>
uniE0B2
</note>
  <outline>
    <contour>
      <point x="-122" y="942" type="line"/>
      <point x="1322" y="-412" type="line"/>
      <point x="1322" y="2294" type="line"/>
    </contour>
  </outline>
</glyph>
<glyph name="uniE0B6" format="2">
  <advance width="1200"/>
  <unicode hex="E0B6"/>
  <note>
uniE0B6
</note>
  <outline>
    <contour>
      <point x="1270" y="2279" type="curve"/>
      <point x="1270" y="-427" type="line"/>
      <point x="1050" y="-427"/>
      <point x="828" y="-361"/>
      <point x="602" y="-229" type="curve" smooth="yes"/>
      <point x="154" y="26"/>
      <point x="-70" y="411"/>
      <point x="-70" y="926" type="curve" smooth="yes"/>
      <point x="-70" y="1442"/>
      <point x="154" y="1828"/>
      <point x="602" y="2086" type="curve" smooth="yes"/>
      <point x="828" y="2215"/>
      <point x="1050" y="2279"/>
    </contour>
  </outline>
</glyph>
<glyph name="uniE0B7" format="2">
  <advance width="1200"/>
  <unicode hex="E0B7"/>
  <note>
uniE0B7
</note>
  <outline>
    <contour>
      <point x="851" y="-498" type="curve"/>
      <point x="1018" y="-498" type="line"/>
      <point x="575" y="-240"/>
      <point x="349" y="339"/>
      <point x="349" y="852" type="curve" smooth="yes"/>
      <point x="349" y="1365"/>
      <point x="572" y="1951"/>
      <point x="1018" y="2208" type="curve"/>
      <point x="851" y="2208" type="line"/>
      <point x="405" y="1951"/>
      <point x="182" y="1365"/>
      <point x="182" y="852" type="curve" smooth="yes"/>
      <point x="182" y="339"/>
      <point x="405" y="-245"/>
    </contour>
  </outline>
</glyph>
<glyph name="uniE0B8" format="2">
  <advance width="1200"/>
  <unicode hex="E0B8"/>
  <note>
uniE0B8
</note>
  <outline>
    <contour>
      <point x="-754" y="2280" type="line"/>
      <point x="-754" y="-426" type="line"/>
      <point x="1954" y="-426" type="line"/>
    </contour>
  </outline>
</glyph>
<glyph name="uniE0BB" format="2">
  <advance width="1200"/>
  <unicode hex="E0BB"/>
  <note>
uniE0BB
</note>
  <outline>
    <contour>
      <point x="1888" y="2280" type="line"/>
      <point x="-820" y="-426" type="line"/>
      <point x="-688" y="-426" type="line"/>
      <point x="2020" y="2280" type="line"/>
    </contour>
  </outline>
</glyph>
<glyph name="uniE0BC" format="2">
  <advance width="1200"/>
  <unicode hex="E0BC"/>
  <note>
uniE0BC
</note>
  <outline>
    <contour>
      <point x="-754" y="-426" type="line"/>
      <point x="-754" y="2280" type="line"/>
      <point x="1954" y="2280" type="line"/>
    </contour>
  </outline>
</glyph>
<glyph name="uniE0C1" format="2">
  <advance width="1200"/>
  <unicode hex="E0C1"/>
  <note>
uniE0C1
</note>
  <outline>
    <contour>
      <point x="-1034" y="2172" type="curve" smooth="yes"/>
      <point x="-1034" y="2172" type="line" smooth="yes"/>
      <point x="-1061" y="2139"/>
      <point x="-1068" y="2110"/>
      <point x="-1048" y="2109" type="curve" smooth="yes"/>
      <point x="-990" y="2107"/>
      <point x="-1004" y="2103"/>
      <point x="-945" y="2036" type="curve"/>
      <point x="-820" y="1905"/>
      <point x="-649" y="1987"/>
      <point x="-510" y="2074" type="curve" smooth="yes"/>
      <point x="-456" y="2108"/>
      <point x="-388" y="2130"/>
      <point x="-318" y="2125" type="curve"/>
      <point x="-375" y="2075"/>
      <point x="-410" y="2027"/>
      <point x="-441" y="1990" type="curve"/>
      <point x="-477" y="1970"/>
      <point x="-542" y="1948"/>
      <point x="-611" y="1898" type="curve" smooth="yes"/>
      <point x="-622" y="1890"/>
      <point x="-635" y="1879"/>
      <point x="-649" y="1866" type="curve" smooth="yes"/>
      <point x="-733" y="1785"/>
      <point x="-723" y="1737"/>
      <point x="-703" y="1710" type="curve" smooth="yes"/>
      <point x="-581" y="1547"/>
      <point x="-266" y="1791"/>
      <point x="-190" y="1844" type="curve" smooth="yes"/>
      <point x="-64" y="1932"/>
      <point x="35" y="1967"/>
      <point x="200" y="1893" type="curve" smooth="yes"/>
      <point x="232" y="1878"/>
      <point x="263" y="1868"/>
      <point x="292" y="1862" type="curve"/>
      <point x="258" y="1849"/>
      <point x="227" y="1834"/>
      <point x="192" y="1809" type="curve" smooth="yes"/>
      <point x="169" y="1792"/>
      <point x="143" y="1770"/>
      <point x="121" y="1744" type="curve" smooth="yes"/>
      <point x="76" y="1694"/>
      <point x="60" y="1653"/>
      <point x="55" y="1624" type="curve" smooth="yes"/>
      <point x="35" y="1521"/>
      <point x="118" y="1444"/>
      <point x="252" y="1419" type="curve" smooth="yes"/>
      <point x="485" y="1376"/>
      <point x="696" y="1570"/>
      <point x="857" y="1619" type="curve" smooth="yes"/>
      <point x="1083" y="1688"/>
      <point x="1314" y="1651"/>
      <point x="1536" y="1536" type="curve" smooth="yes"/>
      <point x="1584" y="1511"/>
      <point x="1630" y="1488"/>
      <point x="1675" y="1468" type="curve"/>
      <point x="1491" y="1488"/>
      <point x="1302" y="1521"/>
      <point x="1084" y="1376" type="curve" smooth="yes"/>
      <point x="969" y="1298"/>
      <point x="924" y="1260"/>
      <point x="802" y="1228" type="curve"/>
      <point x="802" y="1228"/>
      <point x="671" y="1138"/>
      <point x="704" y="1109" type="curve" smooth="yes"/>
      <point x="721" y="1094" type="line" smooth="yes"/>
      <point x="762" y="1058"/>
      <point x="819" y="1040"/>
      <point x="875" y="1028" type="curve"/>
      <point x="757" y="1024"/>
      <point x="625" y="1024"/>
      <point x="456" y="842" type="curve" smooth="yes"/>
      <point x="431" y="816" type="line"/>
      <point x="431" y="816"/>
      <point x="348" y="732"/>
      <point x="412" y="742" type="curve" smooth="yes"/>
      <point x="448" y="748" type="line" smooth="yes"/>
      <point x="495" y="755"/>
      <point x="636" y="652"/>
      <point x="764" y="578" type="curve" smooth="yes"/>
      <point x="846" y="530"/>
      <point x="931" y="518"/>
      <point x="973" y="506" type="curve" smooth="yes"/>
      <point x="1017" y="493"/>
      <point x="1094" y="498"/>
      <point x="1185" y="510" type="curve"/>
      <point x="1121" y="487"/>
      <point x="1070" y="474"/>
      <point x="1040" y="474" type="curve" smooth="yes"/>
      <point x="983" y="474"/>
      <point x="899" y="454"/>
      <point x="799" y="489" type="curve" smooth="yes"/>
      <point x="651" y="540"/>
      <point x="481" y="675"/>
      <point x="350" y="610" type="curve" smooth="yes"/>
      <point x="339" y="605"/>
      <point x="325" y="597"/>
      <point x="309" y="584" type="curve" smooth="yes"/>
      <point x="212" y="506"/>
      <point x="243" y="513"/>
      <point x="141" y="481" type="curve"/>
      <point x="141" y="481"/>
      <point x="11" y="391"/>
      <point x="46" y="363" type="curve" smooth="yes"/>
      <point x="64" y="348" type="line" smooth="yes"/>
      <point x="124" y="300"/>
      <point x="152" y="239"/>
      <point x="211" y="196" type="curve"/>
      <point x="46" y="212"/>
      <point x="-145" y="396"/>
      <point x="-365" y="313" type="curve" smooth="yes"/>
      <point x="-402" y="299"/>
      <point x="-446" y="275"/>
      <point x="-493" y="236" type="curve" smooth="yes"/>
      <point x="-603" y="146"/>
      <point x="-660" y="36"/>
      <point x="-656" y="-50" type="curve" smooth="yes"/>
      <point x="-655" y="-70" type="line" smooth="yes"/>
      <point x="-654" y="-83"/>
      <point x="-639" y="-84"/>
      <point x="-618" y="-73" type="curve" smooth="yes"/>
      <point x="-523" y="-22"/>
      <point x="-457" y="-27"/>
      <point x="-342" y="-91" type="curve" smooth="yes"/>
      <point x="-323" y="-101"/>
      <point x="-303" y="-110"/>
      <point x="-285" y="-116" type="curve"/>
      <point x="-328" y="-121"/>
      <point x="-372" y="-121"/>
      <point x="-417" y="-110" type="curve" smooth="yes"/>
      <point x="-617" y="-62"/>
      <point x="-814" y="-357"/>
      <point x="-946" y="-332" type="curve" smooth="yes"/>
      <point x="-963" y="-328"/>
      <point x="-1001" y="-353"/>
      <point x="-1030" y="-386" type="curve" smooth="yes"/>
      <point x="-1059" y="-420"/>
      <point x="-1068" y="-450"/>
      <point x="-1050" y="-453" type="curve" smooth="yes"/>
      <point x="-851" y="-491"/>
      <point x="-666" y="-197"/>
      <point x="-523" y="-232" type="curve" smooth="yes"/>
      <point x="-365" y="-269"/>
      <point x="-210" y="-191"/>
      <point x="-65" y="-164" type="curve" smooth="yes"/>
      <point x="-62" y="-163"/>
      <point x="-58" y="-163"/>
      <point x="-54" y="-162" type="curve"/>
      <point x="43" y="-41" type="line"/>
      <point x="-52" y="-18"/>
      <point x="-148" y="-17"/>
      <point x="-230" y="28" type="curve" smooth="yes"/>
      <point x="-335" y="86"/>
      <point x="-408" y="109"/>
      <point x="-534" y="51" type="curve"/>
      <point x="-537" y="127"/>
      <point x="-498" y="159"/>
      <point x="-489" y="166" type="curve" smooth="yes"/>
      <point x="-478" y="175"/>
      <point x="-457" y="188"/>
      <point x="-435" y="196" type="curve" smooth="yes"/>
      <point x="-270" y="259"/>
      <point x="-55" y="74"/>
      <point x="135" y="72" type="curve" smooth="yes"/>
      <point x="272" y="70"/>
      <point x="464" y="88"/>
      <point x="627" y="175" type="curve" smooth="yes"/>
      <point x="633" y="178"/>
      <point x="639" y="182"/>
      <point x="645" y="185" type="curve" smooth="yes"/>
      <point x="712" y="225"/>
      <point x="706" y="296"/>
      <point x="706" y="296" type="curve"/>
      <point x="622" y="272"/>
      <point x="514" y="257"/>
      <point x="428" y="272" type="curve" smooth="yes"/>
      <point x="309" y="292"/>
      <point x="280" y="363"/>
      <point x="213" y="433" type="curve"/>
      <point x="248" y="458"/>
      <point x="271" y="479"/>
      <point x="298" y="501" type="curve"/>
      <point x="367" y="516"/>
      <point x="549" y="417"/>
      <point x="691" y="368" type="curve" smooth="yes"/>
      <point x="797" y="331"/>
      <point x="895" y="351"/>
      <point x="942" y="351" type="curve" smooth="yes"/>
      <point x="1062" y="352"/>
      <point x="1332" y="483"/>
      <point x="1543" y="578" type="curve" smooth="yes"/>
      <point x="1546" y="580"/>
      <point x="1549" y="581"/>
      <point x="1551" y="582" type="curve"/>
      <point x="1551" y="582"/>
      <point x="1624" y="699"/>
      <point x="1624" y="699" type="curve"/>
      <point x="1418" y="651"/>
      <point x="1157" y="605"/>
      <point x="1081" y="627" type="curve" smooth="yes"/>
      <point x="1035" y="640"/>
      <point x="955" y="651"/>
      <point x="876" y="697" type="curve" smooth="yes"/>
      <point x="765" y="761"/>
      <point x="655" y="851"/>
      <point x="575" y="868" type="curve"/>
      <point x="650" y="905"/>
      <point x="756" y="902"/>
      <point x="886" y="909" type="curve" smooth="yes"/>
      <point x="1016" y="916"/>
      <point x="1120" y="956"/>
      <point x="1229" y="1007" type="curve" smooth="yes"/>
      <point x="1280" y="1031"/>
      <point x="1302" y="1124"/>
      <point x="1302" y="1124" type="curve"/>
      <point x="1300" y="1123"/>
      <point x="1297" y="1123"/>
      <point x="1294" y="1122" type="curve" smooth="yes"/>
      <point x="1247" y="1115"/>
      <point x="1191" y="1112"/>
      <point x="1140" y="1123" type="curve" smooth="yes"/>
      <point x="1070" y="1137"/>
      <point x="969" y="1142"/>
      <point x="892" y="1176" type="curve"/>
      <point x="951" y="1209"/>
      <point x="1003" y="1246"/>
      <point x="1058" y="1283" type="curve" smooth="yes"/>
      <point x="1338" y="1470"/>
      <point x="1817" y="1140"/>
      <point x="2208" y="1484" type="curve" smooth="yes"/>
      <point x="2312" y="1575"/>
      <point x="2226" y="1568"/>
      <point x="2226" y="1568" type="curve"/>
      <point x="2055" y="1478"/>
      <point x="1864" y="1542"/>
      <point x="1648" y="1655" type="curve" smooth="yes"/>
      <point x="1422" y="1772"/>
      <point x="1188" y="1815"/>
      <point x="935" y="1738" type="curve" smooth="yes"/>
      <point x="710" y="1670"/>
      <point x="570" y="1501"/>
      <point x="356" y="1541" type="curve" smooth="yes"/>
      <point x="231" y="1564"/>
      <point x="164" y="1647"/>
      <point x="176" y="1712" type="curve" smooth="yes"/>
      <point x="177" y="1717"/>
      <point x="178" y="1722"/>
      <point x="180" y="1725" type="curve"/>
      <point x="188" y="1730"/>
      <point x="205" y="1740"/>
      <point x="227" y="1748" type="curve" smooth="yes"/>
      <point x="374" y="1801"/>
      <point x="508" y="1819"/>
      <point x="671" y="1970" type="curve" smooth="yes"/>
      <point x="774" y="2066"/>
      <point x="679" y="2047"/>
      <point x="679" y="2047" type="curve"/>
      <point x="676" y="2045"/>
      <point x="673" y="2044"/>
      <point x="670" y="2042" type="curve" smooth="yes"/>
      <point x="564" y="1982"/>
      <point x="462" y="1944"/>
      <point x="310" y="2013" type="curve" smooth="yes"/>
      <point x="143" y="2088"/>
      <point x="15" y="2061"/>
      <point x="-169" y="1933" type="curve" smooth="yes"/>
      <point x="-256" y="1873"/>
      <point x="-482" y="1686"/>
      <point x="-586" y="1824" type="curve" smooth="yes"/>
      <point x="-588" y="1828"/>
      <point x="-589" y="1830"/>
      <point x="-591" y="1833" type="curve"/>
      <point x="-561" y="1848"/>
      <point x="-471" y="1868"/>
      <point x="-391" y="1961" type="curve" smooth="yes"/>
      <point x="-291" y="2079"/>
      <point x="-315" y="2091"/>
      <point x="-205" y="2091" type="curve" smooth="yes"/>
      <point x="-201" y="2091"/>
      <point x="-197" y="2091"/>
      <point x="-193" y="2091" type="curve"/>
      <point x="-88" y="2212" type="line"/>
      <point x="-203" y="2269"/>
      <point x="-327" y="2265"/>
      <point x="-477" y="2171" type="curve" smooth="yes"/>
      <point x="-583" y="2105"/>
      <point x="-713" y="2030"/>
      <point x="-829" y="2152" type="curve" smooth="yes"/>
      <point x="-882" y="2213"/>
      <point x="-882" y="2229"/>
      <point x="-949" y="2232" type="curve" smooth="yes"/>
      <point x="-968" y="2233"/>
      <point x="-1007" y="2205"/>
    </contour>
  </outline>
</glyph>
<glyph name="uniE0C4" format="2">
  <advance width="1200"/>
  <unicode hex="E0C4"/>
  <note>
uniE0C4
</note>
  <outline>
    <contour>
      <point x="394" y="2079" type="line"/>
      <point x="394" y="2255" type="line"/>
      <point x="570" y="2255" type="line"/>
      <point x="570" y="2079" type="line"/>
    </contour>
    <contour>
      <point x="587" y="2289" type="curve" smooth="yes"/>
      <point x="377" y="2289" type="line" smooth="yes"/>
      <point x="370" y="2289"/>
      <point x="360" y="2282"/>
      <point x="360" y="2272" type="curve" smooth="yes"/>
      <point x="360" y="2062" type="line" smooth="yes"/>
      <point x="360" y="2055"/>
      <point x="367" y="2045"/>
      <point x="377" y="2045" type="curve" smooth="yes"/>
      <point x="587" y="2045" type="line" smooth="yes"/>
      <point x="594" y="2045"/>
      <point x="604" y="2052"/>
      <point x="604" y="2062" type="curve" smooth="yes"/>
      <point x="604" y="2272" type="line" smooth="yes"/>
      <point x="604" y="2279"/>
      <point x="597" y="2289"/>
    </contour>
    <contour>
      <point x="394" y="2079" type="line"/>
      <point x="394" y="2255" type="line"/>
      <point x="570" y="2255" type="line"/>
      <point x="570" y="2079" type="line"/>
    </contour>
    <contour>
      <point x="587" y="2289" type="curve" smooth="yes"/>
      <point x="377" y="2289" type="line" smooth="yes"/>
      <point x="370" y="2289"/>
      <point x="360" y="2282"/>
      <point x="360" y="2272" type="curve" smooth="yes"/>
      <point x="360" y="2062" type="line" smooth="yes"/>
      <point x="360" y="2055"/>
      <point x="367" y="2045"/>
      <point x="377" y="2045" type="curve" smooth="yes"/>
      <point x="587" y="2045" type="line" smooth="yes"/>
      <point x="594" y="2045"/>
      <point x="604" y="2052"/>
      <point x="604" y="2062" type="curve" smooth="yes"/>
      <point x="604" y="2272" type="line" smooth="yes"/>
      <point x="604" y="2279"/>
      <point x="597" y="2289"/>
    </contour>
    <contour>
      <point x="394" y="2079" type="line"/>
      <point x="394" y="2255" type="line"/>
      <point x="570" y="2255" type="line"/>
      <point x="570" y="2079" type="line"/>
    </contour>
    <contour>
      <point x="587" y="2289" type="curve" smooth="yes"/>
      <point x="377" y="2289" type="line" smooth="yes"/>
      <point x="370" y="2289"/>
      <point x="360" y="2282"/>
      <point x="360" y="2272" type="curve" smooth="yes"/>
      <point x="360" y="2062" type="line" smooth="yes"/>
      <point x="360" y="2055"/>
      <point x="367" y="2045"/>
      <point x="377" y="2045" type="curve" smooth="yes"/>
      <point x="587" y="2045" type="line" smooth="yes"/>
      <point x="594" y="2045"/>
      <point x="604" y="2052"/>
      <point x="604" y="2062" type="curve" smooth="yes"/>
      <point x="604" y="2272" type="line" smooth="yes"/>
      <point x="604" y="2279"/>
      <point x="597" y="2289"/>
    </contour>
    <contour>
      <point x="1554" y="2068" type="line"/>
      <point x="1554" y="2266" type="line"/>
      <point x="1752" y="2266" type="line"/>
      <point x="1752" y="2068" type="line"/>
    </contour>
    <contour>
      <point x="1758" y="2278" type="curve" smooth="yes"/>
      <point x="1548" y="2278" type="line" smooth="yes"/>
      <point x="1546" y="2278"/>
      <point x="1543" y="2275"/>
      <point x="1543" y="2272" type="curve" smooth="yes"/>
      <point x="1543" y="2062" type="line" smooth="yes"/>
      <point x="1543" y="2060"/>
      <point x="1545" y="2057"/>
      <point x="1548" y="2057" type="curve" smooth="yes"/>
      <point x="1758" y="2057" type="line" smooth="yes"/>
      <point x="1760" y="2057"/>
      <point x="1764" y="2059"/>
      <point x="1764" y="2062" type="curve" smooth="yes"/>
      <point x="1764" y="2272" type="line" smooth="yes"/>
      <point x="1764" y="2274"/>
      <point x="1761" y="2278"/>
    </contour>
    <contour>
      <point x="1554" y="2068" type="line"/>
      <point x="1554" y="2266" type="line"/>
      <point x="1752" y="2266" type="line"/>
      <point x="1752" y="2068" type="line"/>
    </contour>
    <contour>
      <point x="1758" y="2278" type="curve" smooth="yes"/>
      <point x="1548" y="2278" type="line" smooth="yes"/>
      <point x="1546" y="2278"/>
      <point x="1543" y="2275"/>
      <point x="1543" y="2272" type="curve" smooth="yes"/>
      <point x="1543" y="2062" type="line" smooth="yes"/>
      <point x="1543" y="2060"/>
      <point x="1545" y="2057"/>
      <point x="1548" y="2057" type="curve" smooth="yes"/>
      <point x="1758" y="2057" type="line" smooth="yes"/>
      <point x="1760" y="2057"/>
      <point x="1764" y="2059"/>
      <point x="1764" y="2062" type="curve" smooth="yes"/>
      <point x="1764" y="2272" type="line" smooth="yes"/>
      <point x="1764" y="2274"/>
      <point x="1761" y="2278"/>
    </contour>
    <contour>
      <point x="1554" y="2068" type="line"/>
      <point x="1554" y="2266" type="line"/>
      <point x="1752" y="2266" type="line"/>
      <point x="1752" y="2068" type="line"/>
    </contour>
    <contour>
      <point x="1758" y="2278" type="curve" smooth="yes"/>
      <point x="1548" y="2278" type="line" smooth="yes"/>
      <point x="1546" y="2278"/>
      <point x="1543" y="2275"/>
      <point x="1543" y="2272" type="curve" smooth="yes"/>
      <point x="1543" y="2062" type="line" smooth="yes"/>
      <point x="1543" y="2060"/>
      <point x="1545" y="2057"/>
      <point x="1548" y="2057" type="curve" smooth="yes"/>
      <point x="1758" y="2057" type="line" smooth="yes"/>
      <point x="1760" y="2057"/>
      <point x="1764" y="2059"/>
      <point x="1764" y="2062" type="curve" smooth="yes"/>
      <point x="1764" y="2272" type="line" smooth="yes"/>
      <point x="1764" y="2274"/>
      <point x="1761" y="2278"/>
    </contour>
    <contour>
      <point x="1182" y="2272" type="line"/>
      <point x="972" y="2272" type="line"/>
      <point x="972" y="2062" type="line"/>
      <point x="1182" y="2062" type="line"/>
    </contour>
    <contour>
      <point x="1182" y="2272" type="line"/>
      <point x="972" y="2272" type="line"/>
      <point x="972" y="2062" type="line"/>
      <point x="1182" y="2062" type="line"/>
    </contour>
    <contour>
      <point x="1182" y="2272" type="line"/>
      <point x="972" y="2272" type="line"/>
      <point x="972" y="2062" type="line"/>
      <point x="1182" y="2062" type="line"/>
    </contour>
    <contour>
      <point x="882" y="2272" type="line"/>
      <point x="672" y="2272" type="line"/>
      <point x="672" y="2062" type="line"/>
      <point x="882" y="2062" type="line"/>
    </contour>
    <contour>
      <point x="882" y="2272" type="line"/>
      <point x="672" y="2272" type="line"/>
      <point x="672" y="2062" type="line"/>
      <point x="882" y="2062" type="line"/>
    </contour>
    <contour>
      <point x="882" y="2272" type="line"/>
      <point x="672" y="2272" type="line"/>
      <point x="672" y="2062" type="line"/>
      <point x="882" y="2062" type="line"/>
    </contour>
    <contour>
      <point x="272" y="2272" type="line"/>
      <point x="62" y="2272" type="line"/>
      <point x="62" y="2062" type="line"/>
      <point x="272" y="2062" type="line"/>
    </contour>
    <contour>
      <point x="272" y="2272" type="line"/>
      <point x="62" y="2272" type="line"/>
      <point x="62" y="2062" type="line"/>
      <point x="272" y="2062" type="line"/>
    </contour>
    <contour>
      <point x="272" y="2272" type="line"/>
      <point x="62" y="2272" type="line"/>
      <point x="62" y="2062" type="line"/>
      <point x="272" y="2062" type="line"/>
    </contour>
    <contour>
      <point x="-34" y="2272" type="line"/>
      <point x="-244" y="2272" type="line"/>
      <point x="-244" y="2062" type="line"/>
      <point x="-34" y="2062" type="line"/>
    </contour>
    <contour>
      <point x="-34" y="2272" type="line"/>
      <point x="-244" y="2272" type="line"/>
      <point x="-244" y="2062" type="line"/>
      <point x="-34" y="2062" type="line"/>
    </contour>
    <contour>
      <point x="-34" y="2272" type="line"/>
      <point x="-244" y="2272" type="line"/>
      <point x="-244" y="2062" type="line"/>
      <point x="-34" y="2062" type="line"/>
    </contour>
    <contour>
      <point x="-354" y="2272" type="line"/>
      <point x="-564" y="2272" type="line"/>
      <point x="-564" y="2062" type="line"/>
      <point x="-354" y="2062" type="line"/>
    </contour>
    <contour>
      <point x="-354" y="2272" type="line"/>
      <point x="-564" y="2272" type="line"/>
      <point x="-564" y="2062" type="line"/>
      <point x="-354" y="2062" type="line"/>
    </contour>
    <contour>
      <point x="-354" y="2272" type="line"/>
      <point x="-564" y="2272" type="line"/>
      <point x="-564" y="2062" type="line"/>
      <point x="-354" y="2062" type="line"/>
    </contour>
    <contour>
      <point x="387" y="-406" type="line"/>
      <point x="387" y="-207" type="line"/>
      <point x="586" y="-207" type="line"/>
      <point x="586" y="-406" type="line"/>
    </contour>
    <contour>
      <point x="591" y="-196" type="curve" smooth="yes"/>
      <point x="382" y="-196" type="line" smooth="yes"/>
      <point x="379" y="-196"/>
      <point x="376" y="-198"/>
      <point x="376" y="-202" type="curve" smooth="yes"/>
      <point x="376" y="-411" type="line" smooth="yes"/>
      <point x="376" y="-414"/>
      <point x="378" y="-417"/>
      <point x="382" y="-417" type="curve" smooth="yes"/>
      <point x="591" y="-417" type="line" smooth="yes"/>
      <point x="594" y="-417"/>
      <point x="597" y="-415"/>
      <point x="597" y="-411" type="curve" smooth="yes"/>
      <point x="597" y="-202" type="line" smooth="yes"/>
      <point x="597" y="-199"/>
      <point x="595" y="-196"/>
    </contour>
    <contour>
      <point x="387" y="-406" type="line"/>
      <point x="387" y="-207" type="line"/>
      <point x="586" y="-207" type="line"/>
      <point x="586" y="-406" type="line"/>
    </contour>
    <contour>
      <point x="591" y="-196" type="curve" smooth="yes"/>
      <point x="382" y="-196" type="line" smooth="yes"/>
      <point x="379" y="-196"/>
      <point x="376" y="-198"/>
      <point x="376" y="-202" type="curve" smooth="yes"/>
      <point x="376" y="-411" type="line" smooth="yes"/>
      <point x="376" y="-414"/>
      <point x="378" y="-417"/>
      <point x="382" y="-417" type="curve" smooth="yes"/>
      <point x="591" y="-417" type="line" smooth="yes"/>
      <point x="594" y="-417"/>
      <point x="597" y="-415"/>
      <point x="597" y="-411" type="curve" smooth="yes"/>
      <point x="597" y="-202" type="line" smooth="yes"/>
      <point x="597" y="-199"/>
      <point x="595" y="-196"/>
    </contour>
    <contour>
      <point x="387" y="-406" type="line"/>
      <point x="387" y="-207" type="line"/>
      <point x="586" y="-207" type="line"/>
      <point x="586" y="-406" type="line"/>
    </contour>
    <contour>
      <point x="591" y="-196" type="curve" smooth="yes"/>
      <point x="382" y="-196" type="line" smooth="yes"/>
      <point x="379" y="-196"/>
      <point x="376" y="-198"/>
      <point x="376" y="-202" type="curve" smooth="yes"/>
      <point x="376" y="-411" type="line" smooth="yes"/>
      <point x="376" y="-414"/>
      <point x="378" y="-417"/>
      <point x="382" y="-417" type="curve" smooth="yes"/>
      <point x="591" y="-417" type="line" smooth="yes"/>
      <point x="594" y="-417"/>
      <point x="597" y="-415"/>
      <point x="597" y="-411" type="curve" smooth="yes"/>
      <point x="597" y="-202" type="line" smooth="yes"/>
      <point x="597" y="-199"/>
      <point x="595" y="-196"/>
    </contour>
    <contour>
      <point x="-34" y="-202" type="line"/>
      <point x="-244" y="-202" type="line"/>
      <point x="-244" y="-411" type="line"/>
      <point x="-34" y="-411" type="line"/>
    </contour>
    <contour>
      <point x="-34" y="-202" type="line"/>
      <point x="-244" y="-202" type="line"/>
      <point x="-244" y="-411" type="line"/>
      <point x="-34" y="-411" type="line"/>
    </contour>
    <contour>
      <point x="-34" y="-202" type="line"/>
      <point x="-244" y="-202" type="line"/>
      <point x="-244" y="-411" type="line"/>
      <point x="-34" y="-411" type="line"/>
    </contour>
    <contour>
      <point x="-354" y="-202" type="line"/>
      <point x="-564" y="-202" type="line"/>
      <point x="-564" y="-411" type="line"/>
      <point x="-354" y="-411" type="line"/>
    </contour>
    <contour>
      <point x="-354" y="-202" type="line"/>
      <point x="-564" y="-202" type="line"/>
      <point x="-564" y="-411" type="line"/>
      <point x="-354" y="-411" type="line"/>
    </contour>
    <contour>
      <point x="-354" y="-202" type="line"/>
      <point x="-564" y="-202" type="line"/>
      <point x="-564" y="-411" type="line"/>
      <point x="-354" y="-411" type="line"/>
    </contour>
    <contour>
      <point x="1554" y="1778" type="line"/>
      <point x="1554" y="1976" type="line"/>
      <point x="1752" y="1976" type="line"/>
      <point x="1752" y="1778" type="line"/>
    </contour>
    <contour>
      <point x="1758" y="1988" type="curve" smooth="yes"/>
      <point x="1548" y="1988" type="line" smooth="yes"/>
      <point x="1546" y="1988"/>
      <point x="1543" y="1985"/>
      <point x="1543" y="1982" type="curve" smooth="yes"/>
      <point x="1543" y="1772" type="line" smooth="yes"/>
      <point x="1543" y="1770"/>
      <point x="1545" y="1767"/>
      <point x="1548" y="1767" type="curve" smooth="yes"/>
      <point x="1758" y="1767" type="line" smooth="yes"/>
      <point x="1760" y="1767"/>
      <point x="1764" y="1769"/>
      <point x="1764" y="1772" type="curve" smooth="yes"/>
      <point x="1764" y="1982" type="line" smooth="yes"/>
      <point x="1764" y="1984"/>
      <point x="1761" y="1988"/>
    </contour>
    <contour>
      <point x="1264" y="443" type="line"/>
      <point x="1264" y="642" type="line"/>
      <point x="1462" y="642" type="line"/>
      <point x="1462" y="443" type="line"/>
    </contour>
    <contour>
      <point x="1468" y="653" type="curve" smooth="yes"/>
      <point x="1258" y="653" type="line" smooth="yes"/>
      <point x="1256" y="653"/>
      <point x="1252" y="651"/>
      <point x="1252" y="648" type="curve" smooth="yes"/>
      <point x="1252" y="438" type="line" smooth="yes"/>
      <point x="1252" y="435"/>
      <point x="1255" y="432"/>
      <point x="1258" y="432" type="curve" smooth="yes"/>
      <point x="1468" y="432" type="line" smooth="yes"/>
      <point x="1470" y="432"/>
      <point x="1473" y="434"/>
      <point x="1473" y="438" type="curve" smooth="yes"/>
      <point x="1473" y="648" type="line" smooth="yes"/>
      <point x="1473" y="650"/>
      <point x="1471" y="653"/>
    </contour>
    <contour>
      <point x="1182" y="1982" type="line"/>
      <point x="972" y="1982" type="line"/>
      <point x="972" y="1772" type="line"/>
      <point x="1182" y="1772" type="line"/>
    </contour>
    <contour>
      <point x="978" y="981" type="line"/>
      <point x="978" y="1179" type="line"/>
      <point x="1176" y="1179" type="line"/>
      <point x="1176" y="981" type="line"/>
    </contour>
    <contour>
      <point x="1182" y="1191" type="curve" smooth="yes"/>
      <point x="972" y="1191" type="line" smooth="yes"/>
      <point x="970" y="1191"/>
      <point x="967" y="1188"/>
      <point x="967" y="1185" type="curve" smooth="yes"/>
      <point x="967" y="975" type="line" smooth="yes"/>
      <point x="967" y="973"/>
      <point x="969" y="969"/>
      <point x="972" y="969" type="curve" smooth="yes"/>
      <point x="1182" y="969" type="line" smooth="yes"/>
      <point x="1185" y="969"/>
      <point x="1188" y="972"/>
      <point x="1188" y="975" type="curve" smooth="yes"/>
      <point x="1188" y="1185" type="line" smooth="yes"/>
      <point x="1188" y="1187"/>
      <point x="1186" y="1191"/>
    </contour>
    <contour>
      <point x="978" y="161" type="line"/>
      <point x="978" y="360" type="line"/>
      <point x="1176" y="360" type="line"/>
      <point x="1176" y="161" type="line"/>
    </contour>
    <contour>
      <point x="1182" y="371" type="curve" smooth="yes"/>
      <point x="972" y="371" type="line" smooth="yes"/>
      <point x="970" y="371"/>
      <point x="967" y="369"/>
      <point x="967" y="365" type="curve" smooth="yes"/>
      <point x="967" y="156" type="line" smooth="yes"/>
      <point x="967" y="153"/>
      <point x="969" y="150"/>
      <point x="972" y="150" type="curve" smooth="yes"/>
      <point x="1182" y="150" type="line" smooth="yes"/>
      <point x="1185" y="150"/>
      <point x="1188" y="152"/>
      <point x="1188" y="156" type="curve" smooth="yes"/>
      <point x="1188" y="365" type="line" smooth="yes"/>
      <point x="1188" y="368"/>
      <point x="1186" y="371"/>
    </contour>
    <contour>
      <point x="695" y="1521" type="line"/>
      <point x="695" y="1686" type="line"/>
      <point x="859" y="1686" type="line"/>
      <point x="859" y="1521" type="line"/>
    </contour>
    <contour>
      <point x="882" y="1731" type="curve" smooth="yes"/>
      <point x="672" y="1731" type="line" smooth="yes"/>
      <point x="662" y="1731"/>
      <point x="649" y="1722"/>
      <point x="649" y="1709" type="curve" smooth="yes"/>
      <point x="649" y="1499" type="line" smooth="yes"/>
      <point x="649" y="1489"/>
      <point x="658" y="1476"/>
      <point x="672" y="1476" type="curve" smooth="yes"/>
      <point x="882" y="1476" type="line" smooth="yes"/>
      <point x="891" y="1476"/>
      <point x="904" y="1485"/>
      <point x="904" y="1499" type="curve" smooth="yes"/>
      <point x="904" y="1709" type="line" smooth="yes"/>
      <point x="904" y="1718"/>
      <point x="895" y="1731"/>
    </contour>
    <contour>
      <point x="695" y="1263" type="line"/>
      <point x="695" y="1427" type="line"/>
      <point x="859" y="1427" type="line"/>
      <point x="859" y="1263" type="line"/>
    </contour>
    <contour>
      <point x="882" y="1473" type="curve" smooth="yes"/>
      <point x="672" y="1473" type="line" smooth="yes"/>
      <point x="662" y="1473"/>
      <point x="649" y="1464"/>
      <point x="649" y="1450" type="curve" smooth="yes"/>
      <point x="649" y="1240" type="line" smooth="yes"/>
      <point x="649" y="1231"/>
      <point x="658" y="1218"/>
      <point x="672" y="1218" type="curve" smooth="yes"/>
      <point x="882" y="1218" type="line" smooth="yes"/>
      <point x="891" y="1218"/>
      <point x="904" y="1227"/>
      <point x="904" y="1240" type="curve" smooth="yes"/>
      <point x="904" y="1450" type="line" smooth="yes"/>
      <point x="904" y="1460"/>
      <point x="895" y="1473"/>
    </contour>
    <contour>
      <point x="882" y="1185" type="line"/>
      <point x="672" y="1185" type="line"/>
      <point x="672" y="975" type="line"/>
      <point x="882" y="975" type="line"/>
    </contour>
    <contour>
      <point x="882" y="920" type="line"/>
      <point x="672" y="920" type="line"/>
      <point x="672" y="710" type="line"/>
      <point x="882" y="710" type="line"/>
    </contour>
    <contour>
      <point x="695" y="460" type="line"/>
      <point x="695" y="625" type="line"/>
      <point x="859" y="625" type="line"/>
      <point x="859" y="460" type="line"/>
    </contour>
    <contour>
      <point x="882" y="670" type="curve" smooth="yes"/>
      <point x="672" y="670" type="line" smooth="yes"/>
      <point x="662" y="670"/>
      <point x="649" y="661"/>
      <point x="649" y="648" type="curve" smooth="yes"/>
      <point x="649" y="438" type="line" smooth="yes"/>
      <point x="649" y="428"/>
      <point x="658" y="415"/>
      <point x="672" y="415" type="curve" smooth="yes"/>
      <point x="882" y="415" type="line" smooth="yes"/>
      <point x="891" y="415"/>
      <point x="904" y="424"/>
      <point x="904" y="438" type="curve" smooth="yes"/>
      <point x="904" y="648" type="line" smooth="yes"/>
      <point x="904" y="657"/>
      <point x="895" y="670"/>
    </contour>
    <contour>
      <point x="591" y="1982" type="line"/>
      <point x="382" y="1982" type="line"/>
      <point x="382" y="1772" type="line"/>
      <point x="591" y="1772" type="line"/>
    </contour>
    <contour>
      <point x="591" y="1709" type="line"/>
      <point x="382" y="1709" type="line"/>
      <point x="382" y="1499" type="line"/>
      <point x="591" y="1499" type="line"/>
    </contour>
    <contour>
      <point x="410" y="1003" type="line"/>
      <point x="410" y="1157" type="line"/>
      <point x="563" y="1157" type="line"/>
      <point x="563" y="1003" type="line"/>
    </contour>
    <contour>
      <point x="591" y="1213" type="curve" smooth="yes"/>
      <point x="382" y="1213" type="line" smooth="yes"/>
      <point x="370" y="1213"/>
      <point x="353" y="1202"/>
      <point x="353" y="1185" type="curve" smooth="yes"/>
      <point x="353" y="975" type="line" smooth="yes"/>
      <point x="353" y="963"/>
      <point x="365" y="947"/>
      <point x="382" y="947" type="curve" smooth="yes"/>
      <point x="591" y="947" type="line" smooth="yes"/>
      <point x="604" y="947"/>
      <point x="620" y="958"/>
      <point x="620" y="975" type="curve" smooth="yes"/>
      <point x="620" y="1185" type="line" smooth="yes"/>
      <point x="620" y="1197"/>
      <point x="609" y="1213"/>
    </contour>
    <contour>
      <point x="591" y="920" type="line"/>
      <point x="382" y="920" type="line"/>
      <point x="382" y="710" type="line"/>
      <point x="591" y="710" type="line"/>
    </contour>
    <contour>
      <point x="387" y="161" type="line"/>
      <point x="387" y="360" type="line"/>
      <point x="586" y="360" type="line"/>
      <point x="586" y="161" type="line"/>
    </contour>
    <contour>
      <point x="591" y="371" type="curve" smooth="yes"/>
      <point x="382" y="371" type="line" smooth="yes"/>
      <point x="379" y="371"/>
      <point x="376" y="369"/>
      <point x="376" y="365" type="curve" smooth="yes"/>
      <point x="376" y="156" type="line" smooth="yes"/>
      <point x="376" y="153"/>
      <point x="378" y="150"/>
      <point x="382" y="150" type="curve" smooth="yes"/>
      <point x="591" y="150" type="line" smooth="yes"/>
      <point x="594" y="150"/>
      <point x="597" y="152"/>
      <point x="597" y="156" type="curve" smooth="yes"/>
      <point x="597" y="365" type="line" smooth="yes"/>
      <point x="597" y="368"/>
      <point x="595" y="371"/>
    </contour>
    <contour>
      <point x="272" y="1982" type="line"/>
      <point x="62" y="1982" type="line"/>
      <point x="62" y="1772" type="line"/>
      <point x="272" y="1772" type="line"/>
    </contour>
    <contour>
      <point x="272" y="1709" type="line"/>
      <point x="62" y="1709" type="line"/>
      <point x="62" y="1499" type="line"/>
      <point x="272" y="1499" type="line"/>
    </contour>
    <contour>
      <point x="272" y="83" type="line"/>
      <point x="62" y="83" type="line"/>
      <point x="62" y="-127" type="line"/>
      <point x="272" y="-127" type="line"/>
    </contour>
    <contour>
      <point x="272" y="1450" type="line"/>
      <point x="62" y="1450" type="line"/>
      <point x="62" y="1240" type="line"/>
      <point x="272" y="1240" type="line"/>
    </contour>
    <contour>
      <point x="272" y="83" type="line"/>
      <point x="62" y="83" type="line"/>
      <point x="62" y="-127" type="line"/>
      <point x="272" y="-127" type="line"/>
    </contour>
    <contour>
      <point x="272" y="1185" type="line"/>
      <point x="62" y="1185" type="line"/>
      <point x="62" y="975" type="line"/>
      <point x="272" y="975" type="line"/>
    </contour>
    <contour>
      <point x="272" y="920" type="line"/>
      <point x="62" y="920" type="line"/>
      <point x="62" y="710" type="line"/>
      <point x="272" y="710" type="line"/>
    </contour>
    <contour>
      <point x="272" y="365" type="line"/>
      <point x="62" y="365" type="line"/>
      <point x="62" y="156" type="line"/>
      <point x="272" y="156" type="line"/>
    </contour>
    <contour>
      <point x="272" y="83" type="line"/>
      <point x="62" y="83" type="line"/>
      <point x="62" y="-127" type="line"/>
      <point x="272" y="-127" type="line"/>
    </contour>
    <contour>
      <point x="-34" y="1982" type="line"/>
      <point x="-244" y="1982" type="line"/>
      <point x="-244" y="1772" type="line"/>
      <point x="-34" y="1772" type="line"/>
    </contour>
    <contour>
      <point x="-34" y="1709" type="line"/>
      <point x="-244" y="1709" type="line"/>
      <point x="-244" y="1499" type="line"/>
      <point x="-34" y="1499" type="line"/>
    </contour>
    <contour>
      <point x="-34" y="83" type="line"/>
      <point x="-244" y="83" type="line"/>
      <point x="-244" y="-127" type="line"/>
      <point x="-34" y="-127" type="line"/>
    </contour>
    <contour>
      <point x="-34" y="1450" type="line"/>
      <point x="-244" y="1450" type="line"/>
      <point x="-244" y="1240" type="line"/>
      <point x="-34" y="1240" type="line"/>
    </contour>
    <contour>
      <point x="-34" y="83" type="line"/>
      <point x="-244" y="83" type="line"/>
      <point x="-244" y="-127" type="line"/>
      <point x="-34" y="-127" type="line"/>
    </contour>
    <contour>
      <point x="-34" y="1185" type="line"/>
      <point x="-244" y="1185" type="line"/>
      <point x="-244" y="975" type="line"/>
      <point x="-34" y="975" type="line"/>
    </contour>
    <contour>
      <point x="-34" y="920" type="line"/>
      <point x="-244" y="920" type="line"/>
      <point x="-244" y="710" type="line"/>
      <point x="-34" y="710" type="line"/>
    </contour>
    <contour>
      <point x="-34" y="648" type="line"/>
      <point x="-244" y="648" type="line"/>
      <point x="-244" y="438" type="line"/>
      <point x="-34" y="438" type="line"/>
    </contour>
    <contour>
      <point x="-34" y="365" type="line"/>
      <point x="-244" y="365" type="line"/>
      <point x="-244" y="156" type="line"/>
      <point x="-34" y="156" type="line"/>
    </contour>
    <contour>
      <point x="-34" y="83" type="line"/>
      <point x="-244" y="83" type="line"/>
      <point x="-244" y="-127" type="line"/>
      <point x="-34" y="-127" type="line"/>
    </contour>
    <contour>
      <point x="-354" y="1982" type="line"/>
      <point x="-564" y="1982" type="line"/>
      <point x="-564" y="1772" type="line"/>
      <point x="-354" y="1772" type="line"/>
    </contour>
    <contour>
      <point x="-354" y="1709" type="line"/>
      <point x="-564" y="1709" type="line"/>
      <point x="-564" y="1499" type="line"/>
      <point x="-354" y="1499" type="line"/>
    </contour>
    <contour>
      <point x="-354" y="83" type="line"/>
      <point x="-564" y="83" type="line"/>
      <point x="-564" y="-127" type="line"/>
      <point x="-354" y="-127" type="line"/>
    </contour>
    <contour>
      <point x="-354" y="1450" type="line"/>
      <point x="-564" y="1450" type="line"/>
      <point x="-564" y="1240" type="line"/>
      <point x="-354" y="1240" type="line"/>
    </contour>
    <contour>
      <point x="-354" y="83" type="line"/>
      <point x="-564" y="83" type="line"/>
      <point x="-564" y="-127" type="line"/>
      <point x="-354" y="-127" type="line"/>
    </contour>
    <contour>
      <point x="-354" y="1185" type="line"/>
      <point x="-564" y="1185" type="line"/>
      <point x="-564" y="975" type="line"/>
      <point x="-354" y="975" type="line"/>
    </contour>
    <contour>
      <point x="-354" y="920" type="line"/>
      <point x="-564" y="920" type="line"/>
      <point x="-564" y="710" type="line"/>
      <point x="-354" y="710" type="line"/>
    </contour>
    <contour>
      <point x="-354" y="648" type="line"/>
      <point x="-564" y="648" type="line"/>
      <point x="-564" y="438" type="line"/>
      <point x="-354" y="438" type="line"/>
    </contour>
    <contour>
      <point x="-354" y="365" type="line"/>
      <point x="-564" y="365" type="line"/>
      <point x="-564" y="156" type="line"/>
      <point x="-354" y="156" type="line"/>
    </contour>
    <contour>
      <point x="-354" y="83" type="line"/>
      <point x="-564" y="83" type="line"/>
      <point x="-564" y="-127" type="line"/>
      <point x="-354" y="-127" type="line"/>
    </contour>
  </outline>
</glyph>
<glyph name="uniE0C5" format="2">
  <advance width="1200"/>
  <unicode hex="E0C5"/>
  <note>
uniE0C5
</note>
  <outline>
    <contour>
      <point x="806" y="2079" type="line"/>
      <point x="806" y="2255" type="line"/>
      <point x="630" y="2255" type="line"/>
      <point x="630" y="2079" type="line"/>
    </contour>
    <contour>
      <point x="613" y="2289" type="curve" smooth="yes"/>
      <point x="823" y="2289" type="line" smooth="yes"/>
      <point x="830" y="2289"/>
      <point x="840" y="2282"/>
      <point x="840" y="2272" type="curve" smooth="yes"/>
      <point x="840" y="2062" type="line" smooth="yes"/>
      <point x="840" y="2055"/>
      <point x="833" y="2045"/>
      <point x="823" y="2045" type="curve" smooth="yes"/>
      <point x="613" y="2045" type="line" smooth="yes"/>
      <point x="606" y="2045"/>
      <point x="596" y="2052"/>
      <point x="596" y="2062" type="curve" smooth="yes"/>
      <point x="596" y="2272" type="line" smooth="yes"/>
      <point x="596" y="2279"/>
      <point x="603" y="2289"/>
    </contour>
    <contour>
      <point x="806" y="2079" type="line"/>
      <point x="806" y="2255" type="line"/>
      <point x="630" y="2255" type="line"/>
      <point x="630" y="2079" type="line"/>
    </contour>
    <contour>
      <point x="613" y="2289" type="curve" smooth="yes"/>
      <point x="823" y="2289" type="line" smooth="yes"/>
      <point x="830" y="2289"/>
      <point x="840" y="2282"/>
      <point x="840" y="2272" type="curve" smooth="yes"/>
      <point x="840" y="2062" type="line" smooth="yes"/>
      <point x="840" y="2055"/>
      <point x="833" y="2045"/>
      <point x="823" y="2045" type="curve" smooth="yes"/>
      <point x="613" y="2045" type="line" smooth="yes"/>
      <point x="606" y="2045"/>
      <point x="596" y="2052"/>
      <point x="596" y="2062" type="curve" smooth="yes"/>
      <point x="596" y="2272" type="line" smooth="yes"/>
      <point x="596" y="2279"/>
      <point x="603" y="2289"/>
    </contour>
    <contour>
      <point x="806" y="2079" type="line"/>
      <point x="806" y="2255" type="line"/>
      <point x="630" y="2255" type="line"/>
      <point x="630" y="2079" type="line"/>
    </contour>
    <contour>
      <point x="613" y="2289" type="curve" smooth="yes"/>
      <point x="823" y="2289" type="line" smooth="yes"/>
      <point x="830" y="2289"/>
      <point x="840" y="2282"/>
      <point x="840" y="2272" type="curve" smooth="yes"/>
      <point x="840" y="2062" type="line" smooth="yes"/>
      <point x="840" y="2055"/>
      <point x="833" y="2045"/>
      <point x="823" y="2045" type="curve" smooth="yes"/>
      <point x="613" y="2045" type="line" smooth="yes"/>
      <point x="606" y="2045"/>
      <point x="596" y="2052"/>
      <point x="596" y="2062" type="curve" smooth="yes"/>
      <point x="596" y="2272" type="line" smooth="yes"/>
      <point x="596" y="2279"/>
      <point x="603" y="2289"/>
    </contour>
    <contour>
      <point x="-354" y="2068" type="line"/>
      <point x="-354" y="2266" type="line"/>
      <point x="-552" y="2266" type="line"/>
      <point x="-552" y="2068" type="line"/>
    </contour>
    <contour>
      <point x="-558" y="2278" type="curve" smooth="yes"/>
      <point x="-348" y="2278" type="line" smooth="yes"/>
      <point x="-346" y="2278"/>
      <point x="-343" y="2275"/>
      <point x="-343" y="2272" type="curve" smooth="yes"/>
      <point x="-343" y="2062" type="line" smooth="yes"/>
      <point x="-343" y="2060"/>
      <point x="-345" y="2057"/>
      <point x="-348" y="2057" type="curve" smooth="yes"/>
      <point x="-558" y="2057" type="line" smooth="yes"/>
      <point x="-560" y="2057"/>
      <point x="-564" y="2059"/>
      <point x="-564" y="2062" type="curve" smooth="yes"/>
      <point x="-564" y="2272" type="line" smooth="yes"/>
      <point x="-564" y="2274"/>
      <point x="-561" y="2278"/>
    </contour>
    <contour>
      <point x="-354" y="2068" type="line"/>
      <point x="-354" y="2266" type="line"/>
      <point x="-552" y="2266" type="line"/>
      <point x="-552" y="2068" type="line"/>
    </contour>
    <contour>
      <point x="-558" y="2278" type="curve" smooth="yes"/>
      <point x="-348" y="2278" type="line" smooth="yes"/>
      <point x="-346" y="2278"/>
      <point x="-343" y="2275"/>
      <point x="-343" y="2272" type="curve" smooth="yes"/>
      <point x="-343" y="2062" type="line" smooth="yes"/>
      <point x="-343" y="2060"/>
      <point x="-345" y="2057"/>
      <point x="-348" y="2057" type="curve" smooth="yes"/>
      <point x="-558" y="2057" type="line" smooth="yes"/>
      <point x="-560" y="2057"/>
      <point x="-564" y="2059"/>
      <point x="-564" y="2062" type="curve" smooth="yes"/>
      <point x="-564" y="2272" type="line" smooth="yes"/>
      <point x="-564" y="2274"/>
      <point x="-561" y="2278"/>
    </contour>
    <contour>
      <point x="-354" y="2068" type="line"/>
      <point x="-354" y="2266" type="line"/>
      <point x="-552" y="2266" type="line"/>
      <point x="-552" y="2068" type="line"/>
    </contour>
    <contour>
      <point x="-558" y="2278" type="curve" smooth="yes"/>
      <point x="-348" y="2278" type="line" smooth="yes"/>
      <point x="-346" y="2278"/>
      <point x="-343" y="2275"/>
      <point x="-343" y="2272" type="curve" smooth="yes"/>
      <point x="-343" y="2062" type="line" smooth="yes"/>
      <point x="-343" y="2060"/>
      <point x="-345" y="2057"/>
      <point x="-348" y="2057" type="curve" smooth="yes"/>
      <point x="-558" y="2057" type="line" smooth="yes"/>
      <point x="-560" y="2057"/>
      <point x="-564" y="2059"/>
      <point x="-564" y="2062" type="curve" smooth="yes"/>
      <point x="-564" y="2272" type="line" smooth="yes"/>
      <point x="-564" y="2274"/>
      <point x="-561" y="2278"/>
    </contour>
    <contour>
      <point x="18" y="2272" type="line"/>
      <point x="228" y="2272" type="line"/>
      <point x="228" y="2062" type="line"/>
      <point x="18" y="2062" type="line"/>
    </contour>
    <contour>
      <point x="18" y="2272" type="line"/>
      <point x="228" y="2272" type="line"/>
      <point x="228" y="2062" type="line"/>
      <point x="18" y="2062" type="line"/>
    </contour>
    <contour>
      <point x="18" y="2272" type="line"/>
      <point x="228" y="2272" type="line"/>
      <point x="228" y="2062" type="line"/>
      <point x="18" y="2062" type="line"/>
    </contour>
    <contour>
      <point x="318" y="2272" type="line"/>
      <point x="528" y="2272" type="line"/>
      <point x="528" y="2062" type="line"/>
      <point x="318" y="2062" type="line"/>
    </contour>
    <contour>
      <point x="318" y="2272" type="line"/>
      <point x="528" y="2272" type="line"/>
      <point x="528" y="2062" type="line"/>
      <point x="318" y="2062" type="line"/>
    </contour>
    <contour>
      <point x="318" y="2272" type="line"/>
      <point x="528" y="2272" type="line"/>
      <point x="528" y="2062" type="line"/>
      <point x="318" y="2062" type="line"/>
    </contour>
    <contour>
      <point x="928" y="2272" type="line"/>
      <point x="1138" y="2272" type="line"/>
      <point x="1138" y="2062" type="line"/>
      <point x="928" y="2062" type="line"/>
    </contour>
    <contour>
      <point x="928" y="2272" type="line"/>
      <point x="1138" y="2272" type="line"/>
      <point x="1138" y="2062" type="line"/>
      <point x="928" y="2062" type="line"/>
    </contour>
    <contour>
      <point x="928" y="2272" type="line"/>
      <point x="1138" y="2272" type="line"/>
      <point x="1138" y="2062" type="line"/>
      <point x="928" y="2062" type="line"/>
    </contour>
    <contour>
      <point x="1234" y="2272" type="line"/>
      <point x="1444" y="2272" type="line"/>
      <point x="1444" y="2062" type="line"/>
      <point x="1234" y="2062" type="line"/>
    </contour>
    <contour>
      <point x="1234" y="2272" type="line"/>
      <point x="1444" y="2272" type="line"/>
      <point x="1444" y="2062" type="line"/>
      <point x="1234" y="2062" type="line"/>
    </contour>
    <contour>
      <point x="1234" y="2272" type="line"/>
      <point x="1444" y="2272" type="line"/>
      <point x="1444" y="2062" type="line"/>
      <point x="1234" y="2062" type="line"/>
    </contour>
    <contour>
      <point x="1554" y="2272" type="line"/>
      <point x="1764" y="2272" type="line"/>
      <point x="1764" y="2062" type="line"/>
      <point x="1554" y="2062" type="line"/>
    </contour>
    <contour>
      <point x="1554" y="2272" type="line"/>
      <point x="1764" y="2272" type="line"/>
      <point x="1764" y="2062" type="line"/>
      <point x="1554" y="2062" type="line"/>
    </contour>
    <contour>
      <point x="1554" y="2272" type="line"/>
      <point x="1764" y="2272" type="line"/>
      <point x="1764" y="2062" type="line"/>
      <point x="1554" y="2062" type="line"/>
    </contour>
    <contour>
      <point x="813" y="-406" type="line"/>
      <point x="813" y="-207" type="line"/>
      <point x="614" y="-207" type="line"/>
      <point x="614" y="-406" type="line"/>
    </contour>
    <contour>
      <point x="609" y="-196" type="curve" smooth="yes"/>
      <point x="818" y="-196" type="line" smooth="yes"/>
      <point x="821" y="-196"/>
      <point x="824" y="-198"/>
      <point x="824" y="-202" type="curve" smooth="yes"/>
      <point x="824" y="-411" type="line" smooth="yes"/>
      <point x="824" y="-414"/>
      <point x="822" y="-417"/>
      <point x="818" y="-417" type="curve" smooth="yes"/>
      <point x="609" y="-417" type="line" smooth="yes"/>
      <point x="606" y="-417"/>
      <point x="603" y="-415"/>
      <point x="603" y="-411" type="curve" smooth="yes"/>
      <point x="603" y="-202" type="line" smooth="yes"/>
      <point x="603" y="-199"/>
      <point x="605" y="-196"/>
    </contour>
    <contour>
      <point x="813" y="-406" type="line"/>
      <point x="813" y="-207" type="line"/>
      <point x="614" y="-207" type="line"/>
      <point x="614" y="-406" type="line"/>
    </contour>
    <contour>
      <point x="609" y="-196" type="curve" smooth="yes"/>
      <point x="818" y="-196" type="line" smooth="yes"/>
      <point x="821" y="-196"/>
      <point x="824" y="-198"/>
      <point x="824" y="-202" type="curve" smooth="yes"/>
      <point x="824" y="-411" type="line" smooth="yes"/>
      <point x="824" y="-414"/>
      <point x="822" y="-417"/>
      <point x="818" y="-417" type="curve" smooth="yes"/>
      <point x="609" y="-417" type="line" smooth="yes"/>
      <point x="606" y="-417"/>
      <point x="603" y="-415"/>
      <point x="603" y="-411" type="curve" smooth="yes"/>
      <point x="603" y="-202" type="line" smooth="yes"/>
      <point x="603" y="-199"/>
      <point x="605" y="-196"/>
    </contour>
    <contour>
      <point x="813" y="-406" type="line"/>
      <point x="813" y="-207" type="line"/>
      <point x="614" y="-207" type="line"/>
      <point x="614" y="-406" type="line"/>
    </contour>
    <contour>
      <point x="609" y="-196" type="curve" smooth="yes"/>
      <point x="818" y="-196" type="line" smooth="yes"/>
      <point x="821" y="-196"/>
      <point x="824" y="-198"/>
      <point x="824" y="-202" type="curve" smooth="yes"/>
      <point x="824" y="-411" type="line" smooth="yes"/>
      <point x="824" y="-414"/>
      <point x="822" y="-417"/>
      <point x="818" y="-417" type="curve" smooth="yes"/>
      <point x="609" y="-417" type="line" smooth="yes"/>
      <point x="606" y="-417"/>
      <point x="603" y="-415"/>
      <point x="603" y="-411" type="curve" smooth="yes"/>
      <point x="603" y="-202" type="line" smooth="yes"/>
      <point x="603" y="-199"/>
      <point x="605" y="-196"/>
    </contour>
    <contour>
      <point x="1234" y="-202" type="line"/>
      <point x="1444" y="-202" type="line"/>
      <point x="1444" y="-411" type="line"/>
      <point x="1234" y="-411" type="line"/>
    </contour>
    <contour>
      <point x="1234" y="-202" type="line"/>
      <point x="1444" y="-202" type="line"/>
      <point x="1444" y="-411" type="line"/>
      <point x="1234" y="-411" type="line"/>
    </contour>
    <contour>
      <point x="1234" y="-202" type="line"/>
      <point x="1444" y="-202" type="line"/>
      <point x="1444" y="-411" type="line"/>
      <point x="1234" y="-411" type="line"/>
    </contour>
    <contour>
      <point x="1554" y="-202" type="line"/>
      <point x="1764" y="-202" type="line"/>
      <point x="1764" y="-411" type="line"/>
      <point x="1554" y="-411" type="line"/>
    </contour>
    <contour>
      <point x="1554" y="-202" type="line"/>
      <point x="1764" y="-202" type="line"/>
      <point x="1764" y="-411" type="line"/>
      <point x="1554" y="-411" type="line"/>
    </contour>
    <contour>
      <point x="1554" y="-202" type="line"/>
      <point x="1764" y="-202" type="line"/>
      <point x="1764" y="-411" type="line"/>
      <point x="1554" y="-411" type="line"/>
    </contour>
    <contour>
      <point x="-354" y="1778" type="line"/>
      <point x="-354" y="1976" type="line"/>
      <point x="-552" y="1976" type="line"/>
      <point x="-552" y="1778" type="line"/>
    </contour>
    <contour>
      <point x="-558" y="1988" type="curve" smooth="yes"/>
      <point x="-348" y="1988" type="line" smooth="yes"/>
      <point x="-346" y="1988"/>
      <point x="-343" y="1985"/>
      <point x="-343" y="1982" type="curve" smooth="yes"/>
      <point x="-343" y="1772" type="line" smooth="yes"/>
      <point x="-343" y="1770"/>
      <point x="-345" y="1767"/>
      <point x="-348" y="1767" type="curve" smooth="yes"/>
      <point x="-558" y="1767" type="line" smooth="yes"/>
      <point x="-560" y="1767"/>
      <point x="-564" y="1769"/>
      <point x="-564" y="1772" type="curve" smooth="yes"/>
      <point x="-564" y="1982" type="line" smooth="yes"/>
      <point x="-564" y="1984"/>
      <point x="-561" y="1988"/>
    </contour>
    <contour>
      <point x="-64" y="443" type="line"/>
      <point x="-64" y="642" type="line"/>
      <point x="-262" y="642" type="line"/>
      <point x="-262" y="443" type="line"/>
    </contour>
    <contour>
      <point x="-268" y="653" type="curve" smooth="yes"/>
      <point x="-58" y="653" type="line" smooth="yes"/>
      <point x="-56" y="653"/>
      <point x="-52" y="651"/>
      <point x="-52" y="648" type="curve" smooth="yes"/>
      <point x="-52" y="438" type="line" smooth="yes"/>
      <point x="-52" y="435"/>
      <point x="-55" y="432"/>
      <point x="-58" y="432" type="curve" smooth="yes"/>
      <point x="-268" y="432" type="line" smooth="yes"/>
      <point x="-270" y="432"/>
      <point x="-273" y="434"/>
      <point x="-273" y="438" type="curve" smooth="yes"/>
      <point x="-273" y="648" type="line" smooth="yes"/>
      <point x="-273" y="650"/>
      <point x="-271" y="653"/>
    </contour>
    <contour>
      <point x="18" y="1982" type="line"/>
      <point x="228" y="1982" type="line"/>
      <point x="228" y="1772" type="line"/>
      <point x="18" y="1772" type="line"/>
    </contour>
    <contour>
      <point x="222" y="981" type="line"/>
      <point x="222" y="1179" type="line"/>
      <point x="24" y="1179" type="line"/>
      <point x="24" y="981" type="line"/>
    </contour>
    <contour>
      <point x="18" y="1191" type="curve" smooth="yes"/>
      <point x="228" y="1191" type="line" smooth="yes"/>
      <point x="230" y="1191"/>
      <point x="233" y="1188"/>
      <point x="233" y="1185" type="curve" smooth="yes"/>
      <point x="233" y="975" type="line" smooth="yes"/>
      <point x="233" y="973"/>
      <point x="231" y="969"/>
      <point x="228" y="969" type="curve" smooth="yes"/>
      <point x="18" y="969" type="line" smooth="yes"/>
      <point x="15" y="969"/>
      <point x="12" y="972"/>
      <point x="12" y="975" type="curve" smooth="yes"/>
      <point x="12" y="1185" type="line" smooth="yes"/>
      <point x="12" y="1187"/>
      <point x="14" y="1191"/>
    </contour>
    <contour>
      <point x="222" y="161" type="line"/>
      <point x="222" y="360" type="line"/>
      <point x="24" y="360" type="line"/>
      <point x="24" y="161" type="line"/>
    </contour>
    <contour>
      <point x="18" y="371" type="curve" smooth="yes"/>
      <point x="228" y="371" type="line" smooth="yes"/>
      <point x="230" y="371"/>
      <point x="233" y="369"/>
      <point x="233" y="365" type="curve" smooth="yes"/>
      <point x="233" y="156" type="line" smooth="yes"/>
      <point x="233" y="153"/>
      <point x="231" y="150"/>
      <point x="228" y="150" type="curve" smooth="yes"/>
      <point x="18" y="150" type="line" smooth="yes"/>
      <point x="15" y="150"/>
      <point x="12" y="152"/>
      <point x="12" y="156" type="curve" smooth="yes"/>
      <point x="12" y="365" type="line" smooth="yes"/>
      <point x="12" y="368"/>
      <point x="14" y="371"/>
    </contour>
    <contour>
      <point x="505" y="1521" type="line"/>
      <point x="505" y="1686" type="line"/>
      <point x="341" y="1686" type="line"/>
      <point x="341" y="1521" type="line"/>
    </contour>
    <contour>
      <point x="318" y="1731" type="curve" smooth="yes"/>
      <point x="528" y="1731" type="line" smooth="yes"/>
      <point x="538" y="1731"/>
      <point x="551" y="1722"/>
      <point x="551" y="1709" type="curve" smooth="yes"/>
      <point x="551" y="1499" type="line" smooth="yes"/>
      <point x="551" y="1489"/>
      <point x="542" y="1476"/>
      <point x="528" y="1476" type="curve" smooth="yes"/>
      <point x="318" y="1476" type="line" smooth="yes"/>
      <point x="309" y="1476"/>
      <point x="296" y="1485"/>
      <point x="296" y="1499" type="curve" smooth="yes"/>
      <point x="296" y="1709" type="line" smooth="yes"/>
      <point x="296" y="1718"/>
      <point x="305" y="1731"/>
    </contour>
    <contour>
      <point x="505" y="1263" type="line"/>
      <point x="505" y="1427" type="line"/>
      <point x="341" y="1427" type="line"/>
      <point x="341" y="1263" type="line"/>
    </contour>
    <contour>
      <point x="318" y="1473" type="curve" smooth="yes"/>
      <point x="528" y="1473" type="line" smooth="yes"/>
      <point x="538" y="1473"/>
      <point x="551" y="1464"/>
      <point x="551" y="1450" type="curve" smooth="yes"/>
      <point x="551" y="1240" type="line" smooth="yes"/>
      <point x="551" y="1231"/>
      <point x="542" y="1218"/>
      <point x="528" y="1218" type="curve" smooth="yes"/>
      <point x="318" y="1218" type="line" smooth="yes"/>
      <point x="309" y="1218"/>
      <point x="296" y="1227"/>
      <point x="296" y="1240" type="curve" smooth="yes"/>
      <point x="296" y="1450" type="line" smooth="yes"/>
      <point x="296" y="1460"/>
      <point x="305" y="1473"/>
    </contour>
    <contour>
      <point x="318" y="1185" type="line"/>
      <point x="528" y="1185" type="line"/>
      <point x="528" y="975" type="line"/>
      <point x="318" y="975" type="line"/>
    </contour>
    <contour>
      <point x="318" y="920" type="line"/>
      <point x="528" y="920" type="line"/>
      <point x="528" y="710" type="line"/>
      <point x="318" y="710" type="line"/>
    </contour>
    <contour>
      <point x="505" y="460" type="line"/>
      <point x="505" y="625" type="line"/>
      <point x="341" y="625" type="line"/>
      <point x="341" y="460" type="line"/>
    </contour>
    <contour>
      <point x="318" y="670" type="curve" smooth="yes"/>
      <point x="528" y="670" type="line" smooth="yes"/>
      <point x="538" y="670"/>
      <point x="551" y="661"/>
      <point x="551" y="648" type="curve" smooth="yes"/>
      <point x="551" y="438" type="line" smooth="yes"/>
      <point x="551" y="428"/>
      <point x="542" y="415"/>
      <point x="528" y="415" type="curve" smooth="yes"/>
      <point x="318" y="415" type="line" smooth="yes"/>
      <point x="309" y="415"/>
      <point x="296" y="424"/>
      <point x="296" y="438" type="curve" smooth="yes"/>
      <point x="296" y="648" type="line" smooth="yes"/>
      <point x="296" y="657"/>
      <point x="305" y="670"/>
    </contour>
    <contour>
      <point x="609" y="1982" type="line"/>
      <point x="818" y="1982" type="line"/>
      <point x="818" y="1772" type="line"/>
      <point x="609" y="1772" type="line"/>
    </contour>
    <contour>
      <point x="609" y="1709" type="line"/>
      <point x="818" y="1709" type="line"/>
      <point x="818" y="1499" type="line"/>
      <point x="609" y="1499" type="line"/>
    </contour>
    <contour>
      <point x="790" y="1003" type="line"/>
      <point x="790" y="1157" type="line"/>
      <point x="637" y="1157" type="line"/>
      <point x="637" y="1003" type="line"/>
    </contour>
    <contour>
      <point x="609" y="1213" type="curve" smooth="yes"/>
      <point x="818" y="1213" type="line" smooth="yes"/>
      <point x="830" y="1213"/>
      <point x="847" y="1202"/>
      <point x="847" y="1185" type="curve" smooth="yes"/>
      <point x="847" y="975" type="line" smooth="yes"/>
      <point x="847" y="963"/>
      <point x="835" y="947"/>
      <point x="818" y="947" type="curve" smooth="yes"/>
      <point x="609" y="947" type="line" smooth="yes"/>
      <point x="596" y="947"/>
      <point x="580" y="958"/>
      <point x="580" y="975" type="curve" smooth="yes"/>
      <point x="580" y="1185" type="line" smooth="yes"/>
      <point x="580" y="1197"/>
      <point x="591" y="1213"/>
    </contour>
    <contour>
      <point x="609" y="920" type="line"/>
      <point x="818" y="920" type="line"/>
      <point x="818" y="710" type="line"/>
      <point x="609" y="710" type="line"/>
    </contour>
    <contour>
      <point x="813" y="161" type="line"/>
      <point x="813" y="360" type="line"/>
      <point x="614" y="360" type="line"/>
      <point x="614" y="161" type="line"/>
    </contour>
    <contour>
      <point x="609" y="371" type="curve" smooth="yes"/>
      <point x="818" y="371" type="line" smooth="yes"/>
      <point x="821" y="371"/>
      <point x="824" y="369"/>
      <point x="824" y="365" type="curve" smooth="yes"/>
      <point x="824" y="156" type="line" smooth="yes"/>
      <point x="824" y="153"/>
      <point x="822" y="150"/>
      <point x="818" y="150" type="curve" smooth="yes"/>
      <point x="609" y="150" type="line" smooth="yes"/>
      <point x="606" y="150"/>
      <point x="603" y="152"/>
      <point x="603" y="156" type="curve" smooth="yes"/>
      <point x="603" y="365" type="line" smooth="yes"/>
      <point x="603" y="368"/>
      <point x="605" y="371"/>
    </contour>
    <contour>
      <point x="928" y="1982" type="line"/>
      <point x="1138" y="1982" type="line"/>
      <point x="1138" y="1772" type="line"/>
      <point x="928" y="1772" type="line"/>
    </contour>
    <contour>
      <point x="928" y="1709" type="line"/>
      <point x="1138" y="1709" type="line"/>
      <point x="1138" y="1499" type="line"/>
      <point x="928" y="1499" type="line"/>
    </contour>
    <contour>
      <point x="928" y="83" type="line"/>
      <point x="1138" y="83" type="line"/>
      <point x="1138" y="-127" type="line"/>
      <point x="928" y="-127" type="line"/>
    </contour>
    <contour>
      <point x="928" y="1450" type="line"/>
      <point x="1138" y="1450" type="line"/>
      <point x="1138" y="1240" type="line"/>
      <point x="928" y="1240" type="line"/>
    </contour>
    <contour>
      <point x="928" y="83" type="line"/>
      <point x="1138" y="83" type="line"/>
      <point x="1138" y="-127" type="line"/>
      <point x="928" y="-127" type="line"/>
    </contour>
    <contour>
      <point x="928" y="1185" type="line"/>
      <point x="1138" y="1185" type="line"/>
      <point x="1138" y="975" type="line"/>
      <point x="928" y="975" type="line"/>
    </contour>
    <contour>
      <point x="928" y="920" type="line"/>
      <point x="1138" y="920" type="line"/>
      <point x="1138" y="710" type="line"/>
      <point x="928" y="710" type="line"/>
    </contour>
    <contour>
      <point x="928" y="365" type="line"/>
      <point x="1138" y="365" type="line"/>
      <point x="1138" y="156" type="line"/>
      <point x="928" y="156" type="line"/>
    </contour>
    <contour>
      <point x="928" y="83" type="line"/>
      <point x="1138" y="83" type="line"/>
      <point x="1138" y="-127" type="line"/>
      <point x="928" y="-127" type="line"/>
    </contour>
    <contour>
      <point x="1234" y="1982" type="line"/>
      <point x="1444" y="1982" type="line"/>
      <point x="1444" y="1772" type="line"/>
      <point x="1234" y="1772" type="line"/>
    </contour>
    <contour>
      <point x="1234" y="1709" type="line"/>
      <point x="1444" y="1709" type="line"/>
      <point x="1444" y="1499" type="line"/>
      <point x="1234" y="1499" type="line"/>
    </contour>
    <contour>
      <point x="1234" y="83" type="line"/>
      <point x="1444" y="83" type="line"/>
      <point x="1444" y="-127" type="line"/>
      <point x="1234" y="-127" type="line"/>
    </contour>
    <contour>
      <point x="1234" y="1450" type="line"/>
      <point x="1444" y="1450" type="line"/>
      <point x="1444" y="1240" type="line"/>
      <point x="1234" y="1240" type="line"/>
    </contour>
    <contour>
      <point x="1234" y="83" type="line"/>
      <point x="1444" y="83" type="line"/>
      <point x="1444" y="-127" type="line"/>
      <point x="1234" y="-127" type="line"/>
    </contour>
    <contour>
      <point x="1234" y="1185" type="line"/>
      <point x="1444" y="1185" type="line"/>
      <point x="1444" y="975" type="line"/>
      <point x="1234" y="975" type="line"/>
    </contour>
    <contour>
      <point x="1234" y="920" type="line"/>
      <point x="1444" y="920" type="line"/>
      <point x="1444" y="710" type="line"/>
      <point x="1234" y="710" type="line"/>
    </contour>
    <contour>
      <point x="1234" y="648" type="line"/>
      <point x="1444" y="648" type="line"/>
      <point x="1444" y="438" type="line"/>
      <point x="1234" y="438" type="line"/>
    </contour>
    <contour>
      <point x="1234" y="365" type="line"/>
      <point x="1444" y="365" type="line"/>
      <point x="1444" y="156" type="line"/>
      <point x="1234" y="156" type="line"/>
    </contour>
    <contour>
      <point x="1234" y="83" type="line"/>
      <point x="1444" y="83" type="line"/>
      <point x="1444" y="-127" type="line"/>
      <point x="1234" y="-127" type="line"/>
    </contour>
    <contour>
      <point x="1554" y="1982" type="line"/>
      <point x="1764" y="1982" type="line"/>
      <point x="1764" y="1772" type="line"/>
      <point x="1554" y="1772" type="line"/>
    </contour>
    <contour>
      <point x="1554" y="1709" type="line"/>
      <point x="1764" y="1709" type="line"/>
      <point x="1764" y="1499" type="line"/>
      <point x="1554" y="1499" type="line"/>
    </contour>
    <contour>
      <point x="1554" y="83" type="line"/>
      <point x="1764" y="83" type="line"/>
      <point x="1764" y="-127" type="line"/>
      <point x="1554" y="-127" type="line"/>
    </contour>
    <contour>
      <point x="1554" y="1450" type="line"/>
      <point x="1764" y="1450" type="line"/>
      <point x="1764" y="1240" type="line"/>
      <point x="1554" y="1240" type="line"/>
    </contour>
    <contour>
      <point x="1554" y="83" type="line"/>
      <point x="1764" y="83" type="line"/>
      <point x="1764" y="-127" type="line"/>
      <point x="1554" y="-127" type="line"/>
    </contour>
    <contour>
      <point x="1554" y="1185" type="line"/>
      <point x="1764" y="1185" type="line"/>
      <point x="1764" y="975" type="line"/>
      <point x="1554" y="975" type="line"/>
    </contour>
    <contour>
      <point x="1554" y="920" type="line"/>
      <point x="1764" y="920" type="line"/>
      <point x="1764" y="710" type="line"/>
      <point x="1554" y="710" type="line"/>
    </contour>
    <contour>
      <point x="1554" y="648" type="line"/>
      <point x="1764" y="648" type="line"/>
      <point x="1764" y="438" type="line"/>
      <point x="1554" y="438" type="line"/>
    </contour>
    <contour>
      <point x="1554" y="365" type="line"/>
      <point x="1764" y="365" type="line"/>
      <point x="1764" y="156" type="line"/>
      <point x="1554" y="156" type="line"/>
    </contour>
    <contour>
      <point x="1554" y="83" type="line"/>
      <point x="1764" y="83" type="line"/>
      <point x="1764" y="-127" type="line"/>
      <point x="1554" y="-127" type="line"/>
    </contour>
  </outline>
</glyph>
<glyph name="uniE0C6" format="2">
  <advance width="1200"/>
  <unicode hex="E0C6"/>
  <note>
uniE0C6
</note>
  <outline>
    <contour>
      <point x="923" y="1914" type="line"/>
      <point x="923" y="2168" type="line"/>
      <point x="1177" y="2168" type="line"/>
      <point x="1177" y="1914" type="line"/>
    </contour>
    <contour>
      <point x="1202" y="2217" type="curve" smooth="yes"/>
      <point x="899" y="2217" type="line" smooth="yes"/>
      <point x="888" y="2217"/>
      <point x="874" y="2207"/>
      <point x="874" y="2192" type="curve" smooth="yes"/>
      <point x="874" y="1889" type="line" smooth="yes"/>
      <point x="874" y="1879"/>
      <point x="884" y="1865"/>
      <point x="899" y="1865" type="curve" smooth="yes"/>
      <point x="1202" y="1865" type="line" smooth="yes"/>
      <point x="1212" y="1865"/>
      <point x="1226" y="1874"/>
      <point x="1226" y="1889" type="curve" smooth="yes"/>
      <point x="1226" y="2192" type="line" smooth="yes"/>
      <point x="1226" y="2203"/>
      <point x="1216" y="2217"/>
    </contour>
    <contour>
      <point x="923" y="1914" type="line"/>
      <point x="923" y="2168" type="line"/>
      <point x="1177" y="2168" type="line"/>
      <point x="1177" y="1914" type="line"/>
    </contour>
    <contour>
      <point x="1202" y="2217" type="curve" smooth="yes"/>
      <point x="899" y="2217" type="line" smooth="yes"/>
      <point x="888" y="2217"/>
      <point x="874" y="2207"/>
      <point x="874" y="2192" type="curve" smooth="yes"/>
      <point x="874" y="1889" type="line" smooth="yes"/>
      <point x="874" y="1879"/>
      <point x="884" y="1865"/>
      <point x="899" y="1865" type="curve" smooth="yes"/>
      <point x="1202" y="1865" type="line" smooth="yes"/>
      <point x="1212" y="1865"/>
      <point x="1226" y="1874"/>
      <point x="1226" y="1889" type="curve" smooth="yes"/>
      <point x="1226" y="2192" type="line" smooth="yes"/>
      <point x="1226" y="2203"/>
      <point x="1216" y="2217"/>
    </contour>
    <contour>
      <point x="923" y="1914" type="line"/>
      <point x="923" y="2168" type="line"/>
      <point x="1177" y="2168" type="line"/>
      <point x="1177" y="1914" type="line"/>
    </contour>
    <contour>
      <point x="1202" y="2217" type="curve" smooth="yes"/>
      <point x="899" y="2217" type="line" smooth="yes"/>
      <point x="888" y="2217"/>
      <point x="874" y="2207"/>
      <point x="874" y="2192" type="curve" smooth="yes"/>
      <point x="874" y="1889" type="line" smooth="yes"/>
      <point x="874" y="1879"/>
      <point x="884" y="1865"/>
      <point x="899" y="1865" type="curve" smooth="yes"/>
      <point x="1202" y="1865" type="line" smooth="yes"/>
      <point x="1212" y="1865"/>
      <point x="1226" y="1874"/>
      <point x="1226" y="1889" type="curve" smooth="yes"/>
      <point x="1226" y="2192" type="line" smooth="yes"/>
      <point x="1226" y="2203"/>
      <point x="1216" y="2217"/>
    </contour>
    <contour>
      <point x="457" y="1903" type="line"/>
      <point x="457" y="2178" type="line"/>
      <point x="733" y="2178" type="line"/>
      <point x="733" y="1903" type="line"/>
    </contour>
    <contour>
      <point x="747" y="2206" type="curve" smooth="yes"/>
      <point x="444" y="2206" type="line" smooth="yes"/>
      <point x="438" y="2206"/>
      <point x="430" y="2200"/>
      <point x="430" y="2192" type="curve" smooth="yes"/>
      <point x="430" y="1889" type="line" smooth="yes"/>
      <point x="430" y="1883"/>
      <point x="435" y="1876"/>
      <point x="444" y="1876" type="curve" smooth="yes"/>
      <point x="747" y="1876" type="line" smooth="yes"/>
      <point x="752" y="1876"/>
      <point x="760" y="1881"/>
      <point x="760" y="1889" type="curve" smooth="yes"/>
      <point x="760" y="2192" type="line" smooth="yes"/>
      <point x="760" y="2198"/>
      <point x="755" y="2206"/>
    </contour>
    <contour>
      <point x="457" y="1903" type="line"/>
      <point x="457" y="2178" type="line"/>
      <point x="733" y="2178" type="line"/>
      <point x="733" y="1903" type="line"/>
    </contour>
    <contour>
      <point x="747" y="2206" type="curve" smooth="yes"/>
      <point x="444" y="2206" type="line" smooth="yes"/>
      <point x="438" y="2206"/>
      <point x="430" y="2200"/>
      <point x="430" y="2192" type="curve" smooth="yes"/>
      <point x="430" y="1889" type="line" smooth="yes"/>
      <point x="430" y="1883"/>
      <point x="435" y="1876"/>
      <point x="444" y="1876" type="curve" smooth="yes"/>
      <point x="747" y="1876" type="line" smooth="yes"/>
      <point x="752" y="1876"/>
      <point x="760" y="1881"/>
      <point x="760" y="1889" type="curve" smooth="yes"/>
      <point x="760" y="2192" type="line" smooth="yes"/>
      <point x="760" y="2198"/>
      <point x="755" y="2206"/>
    </contour>
    <contour>
      <point x="457" y="1903" type="line"/>
      <point x="457" y="2178" type="line"/>
      <point x="733" y="2178" type="line"/>
      <point x="733" y="1903" type="line"/>
    </contour>
    <contour>
      <point x="747" y="2206" type="curve" smooth="yes"/>
      <point x="444" y="2206" type="line" smooth="yes"/>
      <point x="438" y="2206"/>
      <point x="430" y="2200"/>
      <point x="430" y="2192" type="curve" smooth="yes"/>
      <point x="430" y="1889" type="line" smooth="yes"/>
      <point x="430" y="1883"/>
      <point x="435" y="1876"/>
      <point x="444" y="1876" type="curve" smooth="yes"/>
      <point x="747" y="1876" type="line" smooth="yes"/>
      <point x="752" y="1876"/>
      <point x="760" y="1881"/>
      <point x="760" y="1889" type="curve" smooth="yes"/>
      <point x="760" y="2192" type="line" smooth="yes"/>
      <point x="760" y="2198"/>
      <point x="755" y="2206"/>
    </contour>
    <contour>
      <point x="305" y="2192" type="line"/>
      <point x="2" y="2192" type="line"/>
      <point x="2" y="1889" type="line"/>
      <point x="305" y="1889" type="line"/>
    </contour>
    <contour>
      <point x="305" y="2192" type="line"/>
      <point x="2" y="2192" type="line"/>
      <point x="2" y="1889" type="line"/>
      <point x="305" y="1889" type="line"/>
    </contour>
    <contour>
      <point x="305" y="2192" type="line"/>
      <point x="2" y="2192" type="line"/>
      <point x="2" y="1889" type="line"/>
      <point x="305" y="1889" type="line"/>
    </contour>
    <contour>
      <point x="-157" y="2192" type="line"/>
      <point x="-460" y="2192" type="line"/>
      <point x="-460" y="1889" type="line"/>
      <point x="-157" y="1889" type="line"/>
    </contour>
    <contour>
      <point x="-157" y="2192" type="line"/>
      <point x="-460" y="2192" type="line"/>
      <point x="-460" y="1889" type="line"/>
      <point x="-157" y="1889" type="line"/>
    </contour>
    <contour>
      <point x="-157" y="2192" type="line"/>
      <point x="-460" y="2192" type="line"/>
      <point x="-460" y="1889" type="line"/>
      <point x="-157" y="1889" type="line"/>
    </contour>
    <contour>
      <point x="1357" y="1108" type="line"/>
      <point x="1357" y="1346" type="line"/>
      <point x="1594" y="1346" type="line"/>
      <point x="1594" y="1108" type="line"/>
    </contour>
    <contour>
      <point x="1627" y="1411" type="curve" smooth="yes"/>
      <point x="1324" y="1411" type="line" smooth="yes"/>
      <point x="1310" y="1411"/>
      <point x="1292" y="1398"/>
      <point x="1292" y="1378" type="curve" smooth="yes"/>
      <point x="1292" y="1075" type="line" smooth="yes"/>
      <point x="1292" y="1061"/>
      <point x="1305" y="1043"/>
      <point x="1324" y="1043" type="curve" smooth="yes"/>
      <point x="1627" y="1043" type="line" smooth="yes"/>
      <point x="1641" y="1043"/>
      <point x="1660" y="1056"/>
      <point x="1660" y="1075" type="curve" smooth="yes"/>
      <point x="1660" y="1378" type="line" smooth="yes"/>
      <point x="1660" y="1392"/>
      <point x="1647" y="1411"/>
    </contour>
    <contour>
      <point x="1357" y="-424" type="line"/>
      <point x="1357" y="-186" type="line"/>
      <point x="1594" y="-186" type="line"/>
      <point x="1594" y="-424" type="line"/>
    </contour>
    <contour>
      <point x="1627" y="-121" type="curve" smooth="yes"/>
      <point x="1324" y="-121" type="line" smooth="yes"/>
      <point x="1310" y="-121"/>
      <point x="1292" y="-134"/>
      <point x="1292" y="-154" type="curve" smooth="yes"/>
      <point x="1292" y="-457" type="line" smooth="yes"/>
      <point x="1292" y="-471"/>
      <point x="1305" y="-489"/>
      <point x="1324" y="-489" type="curve" smooth="yes"/>
      <point x="1627" y="-489" type="line" smooth="yes"/>
      <point x="1641" y="-489"/>
      <point x="1660" y="-476"/>
      <point x="1660" y="-457" type="curve" smooth="yes"/>
      <point x="1660" y="-154" type="line" smooth="yes"/>
      <point x="1660" y="-140"/>
      <point x="1647" y="-121"/>
    </contour>
    <contour>
      <point x="919" y="1484" type="line"/>
      <point x="919" y="1760" type="line"/>
      <point x="1195" y="1760" type="line"/>
      <point x="1195" y="1484" type="line"/>
    </contour>
    <contour>
      <point x="1208" y="1787" type="curve" smooth="yes"/>
      <point x="905" y="1787" type="line" smooth="yes"/>
      <point x="899" y="1787"/>
      <point x="892" y="1781"/>
      <point x="892" y="1773" type="curve" smooth="yes"/>
      <point x="892" y="1470" type="line" smooth="yes"/>
      <point x="892" y="1464"/>
      <point x="897" y="1457"/>
      <point x="905" y="1457" type="curve" smooth="yes"/>
      <point x="1208" y="1457" type="line" smooth="yes"/>
      <point x="1214" y="1457"/>
      <point x="1222" y="1462"/>
      <point x="1222" y="1470" type="curve" smooth="yes"/>
      <point x="1222" y="1773" type="line" smooth="yes"/>
      <point x="1222" y="1779"/>
      <point x="1216" y="1787"/>
    </contour>
    <contour>
      <point x="946" y="360" type="line"/>
      <point x="946" y="581" type="line"/>
      <point x="1167" y="581" type="line"/>
      <point x="1167" y="360" type="line"/>
    </contour>
    <contour>
      <point x="1208" y="663" type="curve" smooth="yes"/>
      <point x="905" y="663" type="line" smooth="yes"/>
      <point x="888" y="663"/>
      <point x="864" y="647"/>
      <point x="864" y="622" type="curve" smooth="yes"/>
      <point x="864" y="319" type="line" smooth="yes"/>
      <point x="864" y="302"/>
      <point x="881" y="278"/>
      <point x="905" y="278" type="curve" smooth="yes"/>
      <point x="1208" y="278" type="line" smooth="yes"/>
      <point x="1226" y="278"/>
      <point x="1249" y="295"/>
      <point x="1249" y="319" type="curve" smooth="yes"/>
      <point x="1249" y="622" type="line" smooth="yes"/>
      <point x="1249" y="640"/>
      <point x="1233" y="663"/>
    </contour>
    <contour>
      <point x="747" y="1773" type="line"/>
      <point x="444" y="1773" type="line"/>
      <point x="444" y="1470" type="line"/>
      <point x="747" y="1470" type="line"/>
    </contour>
    <contour>
      <point x="457" y="1089" type="line"/>
      <point x="457" y="1365" type="line"/>
      <point x="733" y="1365" type="line"/>
      <point x="733" y="1089" type="line"/>
    </contour>
    <contour>
      <point x="747" y="1392" type="curve" smooth="yes"/>
      <point x="444" y="1392" type="line" smooth="yes"/>
      <point x="438" y="1392"/>
      <point x="430" y="1387"/>
      <point x="430" y="1378" type="curve" smooth="yes"/>
      <point x="430" y="1076" type="line" smooth="yes"/>
      <point x="430" y="1070"/>
      <point x="435" y="1062"/>
      <point x="444" y="1062" type="curve" smooth="yes"/>
      <point x="747" y="1062" type="line" smooth="yes"/>
      <point x="752" y="1062"/>
      <point x="760" y="1067"/>
      <point x="760" y="1076" type="curve" smooth="yes"/>
      <point x="760" y="1378" type="line" smooth="yes"/>
      <point x="760" y="1384"/>
      <point x="755" y="1392"/>
    </contour>
    <contour>
      <point x="747" y="1005" type="line"/>
      <point x="444" y="1005" type="line"/>
      <point x="444" y="702" type="line"/>
      <point x="747" y="702" type="line"/>
    </contour>
    <contour>
      <point x="471" y="-36" type="line"/>
      <point x="471" y="212" type="line"/>
      <point x="719" y="212" type="line"/>
      <point x="719" y="-36" type="line"/>
    </contour>
    <contour>
      <point x="747" y="266" type="curve" smooth="yes"/>
      <point x="444" y="266" type="line" smooth="yes"/>
      <point x="432" y="266"/>
      <point x="416" y="256"/>
      <point x="416" y="239" type="curve" smooth="yes"/>
      <point x="416" y="-64" type="line" smooth="yes"/>
      <point x="416" y="-75"/>
      <point x="427" y="-91"/>
      <point x="444" y="-91" type="curve" smooth="yes"/>
      <point x="747" y="-91" type="line" smooth="yes"/>
      <point x="758" y="-91"/>
      <point x="774" y="-80"/>
      <point x="774" y="-64" type="curve" smooth="yes"/>
      <point x="774" y="239" type="line" smooth="yes"/>
      <point x="774" y="251"/>
      <point x="763" y="266"/>
    </contour>
    <contour>
      <point x="305" y="1773" type="line"/>
      <point x="2" y="1773" type="line"/>
      <point x="2" y="1470" type="line"/>
      <point x="305" y="1470" type="line"/>
    </contour>
    <contour>
      <point x="305" y="1378" type="line"/>
      <point x="2" y="1378" type="line"/>
      <point x="2" y="1076" type="line"/>
      <point x="305" y="1076" type="line"/>
    </contour>
    <contour>
      <point x="305" y="622" type="line"/>
      <point x="2" y="622" type="line"/>
      <point x="2" y="319" type="line"/>
      <point x="305" y="319" type="line"/>
    </contour>
    <contour>
      <point x="305" y="239" type="line"/>
      <point x="2" y="239" type="line"/>
      <point x="2" y="-64" type="line"/>
      <point x="305" y="-64" type="line"/>
    </contour>
    <contour>
      <point x="305" y="-154" type="line"/>
      <point x="2" y="-154" type="line"/>
      <point x="2" y="-457" type="line"/>
      <point x="305" y="-457" type="line"/>
    </contour>
    <contour>
      <point x="-157" y="1773" type="line"/>
      <point x="-460" y="1773" type="line"/>
      <point x="-460" y="1470" type="line"/>
      <point x="-157" y="1470" type="line"/>
    </contour>
    <contour>
      <point x="-157" y="1378" type="line"/>
      <point x="-460" y="1378" type="line"/>
      <point x="-460" y="1076" type="line"/>
      <point x="-157" y="1076" type="line"/>
    </contour>
    <contour>
      <point x="-157" y="1005" type="line"/>
      <point x="-460" y="1005" type="line"/>
      <point x="-460" y="702" type="line"/>
      <point x="-157" y="702" type="line"/>
    </contour>
    <contour>
      <point x="-157" y="622" type="line"/>
      <point x="-460" y="622" type="line"/>
      <point x="-460" y="319" type="line"/>
      <point x="-157" y="319" type="line"/>
    </contour>
    <contour>
      <point x="-157" y="239" type="line"/>
      <point x="-460" y="239" type="line"/>
      <point x="-460" y="-64" type="line"/>
      <point x="-157" y="-64" type="line"/>
    </contour>
    <contour>
      <point x="-157" y="-154" type="line"/>
      <point x="-460" y="-154" type="line"/>
      <point x="-460" y="-457" type="line"/>
      <point x="-157" y="-457" type="line"/>
    </contour>
  </outline>
</glyph>
<glyph name="uniE0C8" format="2">
  <advance width="1200"/>
  <unicode hex="E0C8"/>
  <note>
uniE0C8
</note>
  <outline>
    <contour>
      <point x="-1051" y="2218" type="curve" smooth="yes"/>
      <point x="-1048" y="-475" type="line" smooth="yes"/>
      <point x="-1048" y="-478"/>
      <point x="-1044" y="-481"/>
      <point x="-1039" y="-481" type="curve" smooth="yes"/>
      <point x="-1039" y="-481"/>
      <point x="-894" y="-481"/>
      <point x="-851" y="-474" type="curve" smooth="yes"/>
      <point x="-810" y="-468"/>
      <point x="-732" y="-449"/>
      <point x="-693" y="-443" type="curve" smooth="yes"/>
      <point x="-682" y="-441"/>
      <point x="-666" y="-441"/>
      <point x="-649" y="-441" type="curve" smooth="yes"/>
      <point x="-642" y="-441"/>
      <point x="-634" y="-441"/>
      <point x="-626" y="-441" type="curve" smooth="yes"/>
      <point x="-589" y="-441"/>
      <point x="-546" y="-440"/>
      <point x="-505" y="-430" type="curve" smooth="yes"/>
      <point x="-440" y="-414"/>
      <point x="-428" y="-402"/>
      <point x="-374" y="-402" type="curve" smooth="yes"/>
      <point x="-369" y="-402"/>
      <point x="-365" y="-402"/>
      <point x="-360" y="-403" type="curve" smooth="yes"/>
      <point x="-337" y="-403"/>
      <point x="-324" y="-404"/>
      <point x="-315" y="-404" type="curve" smooth="yes"/>
      <point x="-297" y="-404"/>
      <point x="-296" y="-402"/>
      <point x="-276" y="-398" type="curve" smooth="yes"/>
      <point x="-247" y="-392"/>
      <point x="-123" y="-388"/>
      <point x="-123" y="-388" type="curve"/>
      <point x="-123" y="-388"/>
      <point x="-122" y="-388"/>
      <point x="-122" y="-388" type="curve" smooth="yes"/>
      <point x="-98" y="-386"/>
      <point x="-88" y="-375"/>
      <point x="-88" y="-365" type="curve" smooth="yes"/>
      <point x="-88" y="-354"/>
      <point x="-99" y="-344"/>
      <point x="-119" y="-342" type="curve" smooth="yes"/>
      <point x="-136" y="-341"/>
      <point x="-151" y="-341"/>
      <point x="-166" y="-341" type="curve" smooth="yes"/>
      <point x="-189" y="-341"/>
      <point x="-209" y="-341"/>
      <point x="-225" y="-341" type="curve" smooth="yes"/>
      <point x="-240" y="-341"/>
      <point x="-251" y="-341"/>
      <point x="-260" y="-338" type="curve" smooth="yes"/>
      <point x="-284" y="-331"/>
      <point x="-290" y="-319"/>
      <point x="-338" y="-311" type="curve" smooth="yes"/>
      <point x="-385" y="-302"/>
      <point x="-415" y="-294"/>
      <point x="-448" y="-289" type="curve" smooth="yes"/>
      <point x="-482" y="-285"/>
      <point x="-502" y="-286"/>
      <point x="-511" y="-279" type="curve" smooth="yes"/>
      <point x="-522" y="-269"/>
      <point x="-547" y="-268"/>
      <point x="-569" y="-268" type="curve" smooth="yes"/>
      <point x="-576" y="-268"/>
      <point x="-583" y="-268"/>
      <point x="-589" y="-268" type="curve" smooth="yes"/>
      <point x="-594" y="-268"/>
      <point x="-597" y="-268"/>
      <point x="-600" y="-268" type="curve" smooth="yes"/>
      <point x="-626" y="-266"/>
      <point x="-655" y="-263"/>
      <point x="-655" y="-252" type="curve" smooth="yes"/>
      <point x="-655" y="-252"/>
      <point x="-655" y="-252"/>
      <point x="-655" y="-251" type="curve" smooth="yes"/>
      <point x="-653" y="-240"/>
      <point x="-561" y="-225"/>
      <point x="-490" y="-225" type="curve" smooth="yes"/>
      <point x="-420" y="-225"/>
      <point x="-401" y="-210"/>
      <point x="-371" y="-208" type="curve" smooth="yes"/>
      <point x="-336" y="-206"/>
      <point x="-253" y="-200"/>
      <point x="-223" y="-193" type="curve" smooth="yes"/>
      <point x="-195" y="-186"/>
      <point x="-180" y="-175"/>
      <point x="-159" y="-175" type="curve" smooth="yes"/>
      <point x="-156" y="-175"/>
      <point x="-153" y="-176"/>
      <point x="-150" y="-176" type="curve" smooth="yes"/>
      <point x="-139" y="-177"/>
      <point x="-120" y="-179"/>
      <point x="-100" y="-179" type="curve" smooth="yes"/>
      <point x="-69" y="-179"/>
      <point x="-36" y="-175"/>
      <point x="-31" y="-163" type="curve" smooth="yes"/>
      <point x="-30" y="-160"/>
      <point x="-29" y="-158"/>
      <point x="-29" y="-155" type="curve" smooth="yes"/>
      <point x="-29" y="-139"/>
      <point x="-50" y="-129"/>
      <point x="-52" y="-124" type="curve"/>
      <point x="-44" y="-120"/>
      <point x="0" y="-117"/>
      <point x="16" y="-117" type="curve" smooth="yes"/>
      <point x="37" y="-117"/>
      <point x="120" y="-110"/>
      <point x="145" y="-108" type="curve" smooth="yes"/>
      <point x="168" y="-106"/>
      <point x="259" y="-106"/>
      <point x="340" y="-102" type="curve" smooth="yes"/>
      <point x="346" y="-102"/>
      <point x="354" y="-102"/>
      <point x="364" y="-102" type="curve" smooth="yes"/>
      <point x="375" y="-102"/>
      <point x="389" y="-102"/>
      <point x="404" y="-102" type="curve" smooth="yes"/>
      <point x="433" y="-102"/>
      <point x="465" y="-101"/>
      <point x="490" y="-98" type="curve" smooth="yes"/>
      <point x="536" y="-91"/>
      <point x="572" y="-94"/>
      <point x="602" y="-89" type="curve" smooth="yes"/>
      <point x="621" y="-86"/>
      <point x="708" y="-94"/>
      <point x="708" y="-64" type="curve" smooth="yes"/>
      <point x="708" y="-37"/>
      <point x="668" y="-39"/>
      <point x="605" y="-31" type="curve" smooth="yes"/>
      <point x="584" y="-28"/>
      <point x="567" y="-28"/>
      <point x="554" y="-28" type="curve" smooth="yes"/>
      <point x="534" y="-28"/>
      <point x="522" y="-29"/>
      <point x="512" y="-29" type="curve" smooth="yes"/>
      <point x="506" y="-29"/>
      <point x="501" y="-29"/>
      <point x="495" y="-27" type="curve" smooth="yes"/>
      <point x="471" y="-20"/>
      <point x="436" y="-7"/>
      <point x="400" y="-7" type="curve" smooth="yes"/>
      <point x="395" y="-7"/>
      <point x="390" y="-7"/>
      <point x="385" y="-8" type="curve" smooth="yes"/>
      <point x="362" y="-10"/>
      <point x="339" y="-12"/>
      <point x="321" y="-12" type="curve" smooth="yes"/>
      <point x="308" y="-12"/>
      <point x="297" y="-11"/>
      <point x="291" y="-9" type="curve" smooth="yes"/>
      <point x="269" y="1"/>
      <point x="222" y="5"/>
      <point x="187" y="5" type="curve" smooth="yes"/>
      <point x="161" y="5"/>
      <point x="154" y="0"/>
      <point x="144" y="0" type="curve" smooth="yes"/>
      <point x="139" y="0"/>
      <point x="134" y="2"/>
      <point x="124" y="6" type="curve" smooth="yes"/>
      <point x="88" y="23"/>
      <point x="-19" y="14"/>
      <point x="-52" y="22" type="curve" smooth="yes"/>
      <point x="-85" y="29"/>
      <point x="-110" y="43"/>
      <point x="-183" y="43" type="curve" smooth="yes"/>
      <point x="-188" y="43"/>
      <point x="-193" y="43"/>
      <point x="-198" y="43" type="curve" smooth="yes"/>
      <point x="-235" y="42"/>
      <point x="-270" y="42"/>
      <point x="-300" y="42" type="curve" smooth="yes"/>
      <point x="-339" y="42"/>
      <point x="-370" y="43"/>
      <point x="-384" y="47" type="curve" smooth="yes"/>
      <point x="-418" y="57"/>
      <point x="-442" y="55"/>
      <point x="-442" y="61" type="curve" smooth="yes"/>
      <point x="-442" y="61"/>
      <point x="-442" y="62"/>
      <point x="-441" y="63" type="curve" smooth="yes"/>
      <point x="-434" y="77"/>
      <point x="-435" y="74"/>
      <point x="-380" y="78" type="curve" smooth="yes"/>
      <point x="-328" y="82"/>
      <point x="-232" y="84"/>
      <point x="-206" y="87" type="curve" smooth="yes"/>
      <point x="-181" y="89"/>
      <point x="-155" y="93"/>
      <point x="-131" y="102" type="curve" smooth="yes"/>
      <point x="-112" y="110"/>
      <point x="-33" y="127"/>
      <point x="-12" y="127" type="curve" smooth="yes"/>
      <point x="15" y="127"/>
      <point x="70" y="140"/>
      <point x="87" y="140" type="curve" smooth="yes"/>
      <point x="88" y="140"/>
      <point x="89" y="140"/>
      <point x="89" y="139" type="curve" smooth="yes"/>
      <point x="100" y="138"/>
      <point x="127" y="129"/>
      <point x="155" y="129" type="curve" smooth="yes"/>
      <point x="165" y="129"/>
      <point x="175" y="130"/>
      <point x="185" y="134" type="curve" smooth="yes"/>
      <point x="214" y="143"/>
      <point x="239" y="141"/>
      <point x="266" y="144" type="curve" smooth="yes"/>
      <point x="290" y="146"/>
      <point x="340" y="148"/>
      <point x="369" y="152" type="curve" smooth="yes"/>
      <point x="387" y="155"/>
      <point x="421" y="171"/>
      <point x="421" y="185" type="curve" smooth="yes"/>
      <point x="421" y="191"/>
      <point x="412" y="197"/>
      <point x="387" y="200" type="curve" smooth="yes"/>
      <point x="332" y="206"/>
      <point x="289" y="217"/>
      <point x="237" y="219" type="curve" smooth="yes"/>
      <point x="231" y="219"/>
      <point x="225" y="219"/>
      <point x="220" y="219" type="curve" smooth="yes"/>
      <point x="191" y="219"/>
      <point x="178" y="216"/>
      <point x="158" y="216" type="curve" smooth="yes"/>
      <point x="152" y="216"/>
      <point x="146" y="216"/>
      <point x="139" y="217" type="curve" smooth="yes"/>
      <point x="105" y="220"/>
      <point x="79" y="226"/>
      <point x="51" y="226" type="curve" smooth="yes"/>
      <point x="47" y="226"/>
      <point x="42" y="226"/>
      <point x="37" y="225" type="curve" smooth="yes"/>
      <point x="33" y="225"/>
      <point x="29" y="225"/>
      <point x="23" y="225" type="curve" smooth="yes"/>
      <point x="-12" y="225"/>
      <point x="-73" y="230"/>
      <point x="-114" y="230" type="curve" smooth="yes"/>
      <point x="-159" y="230"/>
      <point x="-195" y="240"/>
      <point x="-217" y="244" type="curve" smooth="yes"/>
      <point x="-241" y="249"/>
      <point x="-261" y="249"/>
      <point x="-290" y="259" type="curve" smooth="yes"/>
      <point x="-327" y="271"/>
      <point x="-390" y="276"/>
      <point x="-390" y="290" type="curve" smooth="yes"/>
      <point x="-390" y="292"/>
      <point x="-389" y="294"/>
      <point x="-387" y="296" type="curve" smooth="yes"/>
      <point x="-358" y="322"/>
      <point x="-244" y="360"/>
      <point x="-185" y="360" type="curve" smooth="yes"/>
      <point x="-120" y="360"/>
      <point x="-109" y="384"/>
      <point x="-75" y="387" type="curve" smooth="yes"/>
      <point x="-36" y="391"/>
      <point x="101" y="400"/>
      <point x="126" y="402" type="curve" smooth="yes"/>
      <point x="150" y="404"/>
      <point x="464" y="417"/>
      <point x="518" y="425" type="curve" smooth="yes"/>
      <point x="572" y="434"/>
      <point x="583" y="438"/>
      <point x="641" y="440" type="curve" smooth="yes"/>
      <point x="646" y="440"/>
      <point x="651" y="440"/>
      <point x="655" y="440" type="curve" smooth="yes"/>
      <point x="685" y="440"/>
      <point x="699" y="437"/>
      <point x="722" y="437" type="curve" smooth="yes"/>
      <point x="733" y="437"/>
      <point x="746" y="438"/>
      <point x="764" y="440" type="curve" smooth="yes"/>
      <point x="819" y="449"/>
      <point x="898" y="461"/>
      <point x="929" y="461" type="curve" smooth="yes"/>
      <point x="969" y="461"/>
      <point x="962" y="474"/>
      <point x="982" y="474" type="curve" smooth="yes"/>
      <point x="1002" y="474"/>
      <point x="1024" y="463"/>
      <point x="1068" y="463" type="curve" smooth="yes"/>
      <point x="1074" y="463"/>
      <point x="1081" y="463"/>
      <point x="1089" y="463" type="curve" smooth="yes"/>
      <point x="1144" y="468"/>
      <point x="1298" y="469"/>
      <point x="1337" y="481" type="curve" smooth="yes"/>
      <point x="1345" y="483"/>
      <point x="1357" y="484"/>
      <point x="1371" y="484" type="curve" smooth="yes"/>
      <point x="1397" y="484"/>
      <point x="1427" y="481"/>
      <point x="1450" y="481" type="curve" smooth="yes"/>
      <point x="1457" y="481"/>
      <point x="1464" y="482"/>
      <point x="1469" y="483" type="curve" smooth="yes"/>
      <point x="1471" y="483"/>
      <point x="1474" y="483"/>
      <point x="1477" y="483" type="curve" smooth="yes"/>
      <point x="1488" y="483"/>
      <point x="1504" y="480"/>
      <point x="1531" y="480" type="curve" smooth="yes"/>
      <point x="1543" y="480"/>
      <point x="1557" y="481"/>
      <point x="1574" y="483" type="curve" smooth="yes"/>
      <point x="1635" y="489"/>
      <point x="1769" y="499"/>
      <point x="1828" y="504" type="curve" smooth="yes"/>
      <point x="1876" y="507"/>
      <point x="1912" y="511"/>
      <point x="1949" y="511" type="curve" smooth="yes"/>
      <point x="1958" y="511"/>
      <point x="1967" y="510"/>
      <point x="1975" y="510" type="curve" smooth="yes"/>
      <point x="1980" y="510"/>
      <point x="1984" y="510"/>
      <point x="1988" y="510" type="curve" smooth="yes"/>
      <point x="2033" y="510"/>
      <point x="2066" y="521"/>
      <point x="2094" y="521" type="curve" smooth="yes"/>
      <point x="2104" y="521"/>
      <point x="2126" y="520"/>
      <point x="2151" y="520" type="curve" smooth="yes"/>
      <point x="2193" y="520"/>
      <point x="2243" y="523"/>
      <point x="2248" y="540" type="curve" smooth="yes"/>
      <point x="2250" y="545"/>
      <point x="2251" y="550"/>
      <point x="2251" y="554" type="curve" smooth="yes"/>
      <point x="2251" y="569"/>
      <point x="2237" y="579"/>
      <point x="2175" y="581" type="curve" smooth="yes"/>
      <point x="2157" y="582"/>
      <point x="2135" y="582"/>
      <point x="2112" y="582" type="curve" smooth="yes"/>
      <point x="2072" y="582"/>
      <point x="2028" y="581"/>
      <point x="1991" y="581" type="curve" smooth="yes"/>
      <point x="1956" y="581"/>
      <point x="1927" y="582"/>
      <point x="1912" y="583" type="curve" smooth="yes"/>
      <point x="1873" y="587"/>
      <point x="1806" y="598"/>
      <point x="1758" y="598" type="curve" smooth="yes"/>
      <point x="1753" y="598"/>
      <point x="1749" y="598"/>
      <point x="1746" y="598" type="curve" smooth="yes"/>
      <point x="1703" y="596"/>
      <point x="1655" y="587"/>
      <point x="1628" y="587" type="curve" smooth="yes"/>
      <point x="1624" y="587"/>
      <point x="1621" y="587"/>
      <point x="1618" y="587" type="curve" smooth="yes"/>
      <point x="1589" y="592"/>
      <point x="1506" y="602"/>
      <point x="1473" y="602" type="curve" smooth="yes"/>
      <point x="1441" y="602"/>
      <point x="1376" y="600"/>
      <point x="1346" y="600" type="curve" smooth="yes"/>
      <point x="1320" y="600"/>
      <point x="1294" y="593"/>
      <point x="1272" y="593" type="curve" smooth="yes"/>
      <point x="1263" y="593"/>
      <point x="1255" y="594"/>
      <point x="1248" y="597" type="curve" smooth="yes"/>
      <point x="1178" y="626"/>
      <point x="1119" y="629"/>
      <point x="1077" y="629" type="curve" smooth="yes"/>
      <point x="1062" y="629"/>
      <point x="1050" y="629"/>
      <point x="1040" y="629" type="curve" smooth="yes"/>
      <point x="1027" y="629"/>
      <point x="1018" y="629"/>
      <point x="1012" y="632" type="curve" smooth="yes"/>
      <point x="978" y="647"/>
      <point x="973" y="651"/>
      <point x="883" y="651" type="curve" smooth="yes"/>
      <point x="801" y="651"/>
      <point x="769" y="664"/>
      <point x="722" y="664" type="curve" smooth="yes"/>
      <point x="719" y="664"/>
      <point x="715" y="664"/>
      <point x="711" y="664" type="curve" smooth="yes"/>
      <point x="679" y="662"/>
      <point x="654" y="658"/>
      <point x="633" y="658" type="curve" smooth="yes"/>
      <point x="619" y="658"/>
      <point x="607" y="660"/>
      <point x="596" y="665" type="curve" smooth="yes"/>
      <point x="581" y="671"/>
      <point x="554" y="673"/>
      <point x="525" y="673" type="curve" smooth="yes"/>
      <point x="494" y="673"/>
      <point x="460" y="671"/>
      <point x="434" y="671" type="curve" smooth="yes"/>
      <point x="419" y="671"/>
      <point x="406" y="672"/>
      <point x="399" y="674" type="curve" smooth="yes"/>
      <point x="359" y="685"/>
      <point x="329" y="681"/>
      <point x="288" y="685" type="curve" smooth="yes"/>
      <point x="243" y="689"/>
      <point x="254" y="685"/>
      <point x="221" y="691" type="curve" smooth="yes"/>
      <point x="200" y="695"/>
      <point x="197" y="704"/>
      <point x="168" y="704" type="curve" smooth="yes"/>
      <point x="160" y="704"/>
      <point x="149" y="704"/>
      <point x="136" y="702" type="curve" smooth="yes"/>
      <point x="122" y="700"/>
      <point x="111" y="699"/>
      <point x="102" y="699" type="curve" smooth="yes"/>
      <point x="79" y="699"/>
      <point x="69" y="704"/>
      <point x="47" y="704" type="curve" smooth="yes"/>
      <point x="44" y="704"/>
      <point x="41" y="704"/>
      <point x="37" y="704" type="curve" smooth="yes"/>
      <point x="29" y="703"/>
      <point x="10" y="703"/>
      <point x="-14" y="703" type="curve" smooth="yes"/>
      <point x="-85" y="703"/>
      <point x="-198" y="705"/>
      <point x="-224" y="708" type="curve" smooth="yes"/>
      <point x="-232" y="709"/>
      <point x="-241" y="709"/>
      <point x="-249" y="709" type="curve" smooth="yes"/>
      <point x="-268" y="709"/>
      <point x="-286" y="708"/>
      <point x="-301" y="708" type="curve" smooth="yes"/>
      <point x="-314" y="708"/>
      <point x="-325" y="709"/>
      <point x="-332" y="713" type="curve" smooth="yes"/>
      <point x="-339" y="717"/>
      <point x="-343" y="721"/>
      <point x="-344" y="722" type="curve"/>
      <point x="-341" y="724"/>
      <point x="-323" y="729"/>
      <point x="-278" y="732" type="curve" smooth="yes"/>
      <point x="-190" y="739"/>
      <point x="-94" y="747"/>
      <point x="-52" y="758" type="curve" smooth="yes"/>
      <point x="-13" y="768"/>
      <point x="96" y="781"/>
      <point x="140" y="790" type="curve" smooth="yes"/>
      <point x="183" y="798"/>
      <point x="207" y="815"/>
      <point x="260" y="815" type="curve" smooth="yes"/>
      <point x="265" y="815"/>
      <point x="271" y="815"/>
      <point x="276" y="815" type="curve" smooth="yes"/>
      <point x="285" y="814"/>
      <point x="293" y="814"/>
      <point x="301" y="814" type="curve" smooth="yes"/>
      <point x="351" y="814"/>
      <point x="368" y="826"/>
      <point x="402" y="828" type="curve" smooth="yes"/>
      <point x="433" y="829"/>
      <point x="511" y="824"/>
      <point x="511" y="846" type="curve" smooth="yes"/>
      <point x="511" y="848"/>
      <point x="510" y="850"/>
      <point x="509" y="852" type="curve" smooth="yes"/>
      <point x="498" y="875"/>
      <point x="469" y="882"/>
      <point x="392" y="884" type="curve" smooth="yes"/>
      <point x="316" y="886"/>
      <point x="287" y="898"/>
      <point x="254" y="903" type="curve" smooth="yes"/>
      <point x="246" y="904"/>
      <point x="238" y="904"/>
      <point x="230" y="904" type="curve" smooth="yes"/>
      <point x="208" y="904"/>
      <point x="184" y="902"/>
      <point x="154" y="902" type="curve" smooth="yes"/>
      <point x="143" y="902"/>
      <point x="132" y="902"/>
      <point x="120" y="903" type="curve" smooth="yes"/>
      <point x="57" y="907"/>
      <point x="17" y="907"/>
      <point x="-15" y="913" type="curve" smooth="yes"/>
      <point x="-45" y="919"/>
      <point x="-119" y="935"/>
      <point x="-154" y="935" type="curve" smooth="yes"/>
      <point x="-159" y="935"/>
      <point x="-163" y="935"/>
      <point x="-166" y="934" type="curve" smooth="yes"/>
      <point x="-169" y="934"/>
      <point x="-175" y="934"/>
      <point x="-184" y="934" type="curve" smooth="yes"/>
      <point x="-218" y="934"/>
      <point x="-287" y="938"/>
      <point x="-298" y="939" type="curve" smooth="yes"/>
      <point x="-301" y="939"/>
      <point x="-311" y="943"/>
      <point x="-314" y="946" type="curve"/>
      <point x="-312" y="947"/>
      <point x="-304" y="950"/>
      <point x="-286" y="953" type="curve" smooth="yes"/>
      <point x="-264" y="956"/>
      <point x="-236" y="957"/>
      <point x="-208" y="957" type="curve" smooth="yes"/>
      <point x="-182" y="957"/>
      <point x="-154" y="956"/>
      <point x="-130" y="956" type="curve" smooth="yes"/>
      <point x="-101" y="956"/>
      <point x="-76" y="957"/>
      <point x="-61" y="961" type="curve" smooth="yes"/>
      <point x="-25" y="972"/>
      <point x="17" y="976"/>
      <point x="64" y="978" type="curve" smooth="yes"/>
      <point x="91" y="979"/>
      <point x="180" y="987"/>
      <point x="180" y="1003" type="curve" smooth="yes"/>
      <point x="180" y="1005"/>
      <point x="177" y="1009"/>
      <point x="171" y="1012" type="curve" smooth="yes"/>
      <point x="142" y="1026"/>
      <point x="50" y="1041"/>
      <point x="10" y="1041" type="curve" smooth="yes"/>
      <point x="-2" y="1041"/>
      <point x="-15" y="1040"/>
      <point x="-28" y="1040" type="curve" smooth="yes"/>
      <point x="-56" y="1040"/>
      <point x="-85" y="1041"/>
      <point x="-108" y="1047" type="curve" smooth="yes"/>
      <point x="-124" y="1050"/>
      <point x="-143" y="1051"/>
      <point x="-163" y="1051" type="curve" smooth="yes"/>
      <point x="-178" y="1051"/>
      <point x="-194" y="1051"/>
      <point x="-211" y="1051" type="curve" smooth="yes"/>
      <point x="-228" y="1051"/>
      <point x="-245" y="1051"/>
      <point x="-261" y="1053" type="curve" smooth="yes"/>
      <point x="-409" y="1072"/>
      <point x="-352" y="1073"/>
      <point x="-405" y="1131" type="curve" smooth="yes"/>
      <point x="-440" y="1170"/>
      <point x="-460" y="1174"/>
      <point x="-460" y="1186" type="curve" smooth="yes"/>
      <point x="-460" y="1192"/>
      <point x="-455" y="1200"/>
      <point x="-445" y="1214" type="curve" smooth="yes"/>
      <point x="-413" y="1258"/>
      <point x="-317" y="1279"/>
      <point x="-284" y="1290" type="curve" smooth="yes"/>
      <point x="-256" y="1299"/>
      <point x="-179" y="1299"/>
      <point x="-150" y="1311" type="curve" smooth="yes"/>
      <point x="-130" y="1320"/>
      <point x="-36" y="1321"/>
      <point x="3" y="1327" type="curve" smooth="yes"/>
      <point x="7" y="1328"/>
      <point x="12" y="1328"/>
      <point x="17" y="1328" type="curve" smooth="yes"/>
      <point x="35" y="1328"/>
      <point x="57" y="1324"/>
      <point x="77" y="1324" type="curve" smooth="yes"/>
      <point x="89" y="1324"/>
      <point x="101" y="1326"/>
      <point x="111" y="1330" type="curve" smooth="yes"/>
      <point x="128" y="1338"/>
      <point x="148" y="1344"/>
      <point x="172" y="1344" type="curve" smooth="yes"/>
      <point x="186" y="1344"/>
      <point x="201" y="1341"/>
      <point x="218" y="1336" type="curve" smooth="yes"/>
      <point x="228" y="1333"/>
      <point x="241" y="1332"/>
      <point x="256" y="1332" type="curve" smooth="yes"/>
      <point x="317" y="1332"/>
      <point x="407" y="1355"/>
      <point x="438" y="1361" type="curve" smooth="yes"/>
      <point x="477" y="1369"/>
      <point x="601" y="1378"/>
      <point x="636" y="1382" type="curve" smooth="yes"/>
      <point x="656" y="1385"/>
      <point x="773" y="1383"/>
      <point x="773" y="1412" type="curve" smooth="yes"/>
      <point x="773" y="1414"/>
      <point x="772" y="1417"/>
      <point x="770" y="1420" type="curve" smooth="yes"/>
      <point x="748" y="1452"/>
      <point x="702" y="1453"/>
      <point x="653" y="1453" type="curve" smooth="yes"/>
      <point x="627" y="1453"/>
      <point x="608" y="1451"/>
      <point x="590" y="1451" type="curve" smooth="yes"/>
      <point x="572" y="1451"/>
      <point x="554" y="1453"/>
      <point x="529" y="1461" type="curve" smooth="yes"/>
      <point x="489" y="1474"/>
      <point x="410" y="1481"/>
      <point x="356" y="1481" type="curve" smooth="yes"/>
      <point x="337" y="1481"/>
      <point x="321" y="1480"/>
      <point x="312" y="1479" type="curve" smooth="yes"/>
      <point x="308" y="1478"/>
      <point x="305" y="1477"/>
      <point x="303" y="1477" type="curve" smooth="yes"/>
      <point x="288" y="1477"/>
      <point x="292" y="1489"/>
      <point x="260" y="1491" type="curve" smooth="yes"/>
      <point x="232" y="1494"/>
      <point x="170" y="1498"/>
      <point x="135" y="1508" type="curve" smooth="yes"/>
      <point x="125" y="1511"/>
      <point x="116" y="1512"/>
      <point x="108" y="1512" type="curve" smooth="yes"/>
      <point x="86" y="1512"/>
      <point x="72" y="1504"/>
      <point x="60" y="1504" type="curve" smooth="yes"/>
      <point x="56" y="1504"/>
      <point x="52" y="1505"/>
      <point x="48" y="1508" type="curve" smooth="yes"/>
      <point x="24" y="1529"/>
      <point x="-67" y="1551"/>
      <point x="-106" y="1551" type="curve" smooth="yes"/>
      <point x="-108" y="1551"/>
      <point x="-110" y="1551"/>
      <point x="-112" y="1551" type="curve" smooth="yes"/>
      <point x="-114" y="1551"/>
      <point x="-117" y="1551"/>
      <point x="-119" y="1551" type="curve" smooth="yes"/>
      <point x="-149" y="1551"/>
      <point x="-199" y="1559"/>
      <point x="-234" y="1563" type="curve" smooth="yes"/>
      <point x="-271" y="1568"/>
      <point x="-438" y="1589"/>
      <point x="-484" y="1589" type="curve" smooth="yes"/>
      <point x="-517" y="1589"/>
      <point x="-570" y="1598"/>
      <point x="-570" y="1615" type="curve" smooth="yes"/>
      <point x="-570" y="1622"/>
      <point x="-561" y="1630"/>
      <point x="-538" y="1639" type="curve" smooth="yes"/>
      <point x="-447" y="1676"/>
      <point x="-301" y="1662"/>
      <point x="-275" y="1671" type="curve" smooth="yes"/>
      <point x="-260" y="1676"/>
      <point x="-104" y="1681"/>
      <point x="-54" y="1685" type="curve" smooth="yes"/>
      <point x="-8" y="1689"/>
      <point x="53" y="1712"/>
      <point x="94" y="1712" type="curve" smooth="yes"/>
      <point x="102" y="1712"/>
      <point x="109" y="1711"/>
      <point x="115" y="1709" type="curve" smooth="yes"/>
      <point x="141" y="1700"/>
      <point x="188" y="1694"/>
      <point x="229" y="1694" type="curve" smooth="yes"/>
      <point x="260" y="1694"/>
      <point x="287" y="1698"/>
      <point x="299" y="1706" type="curve" smooth="yes"/>
      <point x="301" y="1707"/>
      <point x="303" y="1708"/>
      <point x="306" y="1708" type="curve" smooth="yes"/>
      <point x="318" y="1708"/>
      <point x="336" y="1695"/>
      <point x="361" y="1695" type="curve" smooth="yes"/>
      <point x="370" y="1695"/>
      <point x="380" y="1696"/>
      <point x="390" y="1701" type="curve" smooth="yes"/>
      <point x="424" y="1714"/>
      <point x="520" y="1719"/>
      <point x="548" y="1721" type="curve" smooth="yes"/>
      <point x="579" y="1723"/>
      <point x="602" y="1739"/>
      <point x="628" y="1739" type="curve" smooth="yes"/>
      <point x="631" y="1739"/>
      <point x="633" y="1738"/>
      <point x="636" y="1738" type="curve" smooth="yes"/>
      <point x="652" y="1736"/>
      <point x="698" y="1734"/>
      <point x="749" y="1734" type="curve" smooth="yes"/>
      <point x="812" y="1734"/>
      <point x="885" y="1737"/>
      <point x="926" y="1747" type="curve" smooth="yes"/>
      <point x="955" y="1754"/>
      <point x="980" y="1755"/>
      <point x="1002" y="1755" type="curve" smooth="yes"/>
      <point x="1023" y="1755"/>
      <point x="1042" y="1754"/>
      <point x="1060" y="1754" type="curve" smooth="yes"/>
      <point x="1068" y="1754"/>
      <point x="1075" y="1754"/>
      <point x="1083" y="1755" type="curve" smooth="yes"/>
      <point x="1121" y="1759"/>
      <point x="1202" y="1757"/>
      <point x="1225" y="1778" type="curve" smooth="yes"/>
      <point x="1231" y="1784"/>
      <point x="1234" y="1790"/>
      <point x="1234" y="1797" type="curve" smooth="yes"/>
      <point x="1234" y="1813"/>
      <point x="1217" y="1829"/>
      <point x="1193" y="1829" type="curve" smooth="yes"/>
      <point x="1190" y="1829"/>
      <point x="1186" y="1829"/>
      <point x="1182" y="1828" type="curve" smooth="yes"/>
      <point x="1169" y="1825"/>
      <point x="1160" y="1824"/>
      <point x="1150" y="1824" type="curve" smooth="yes"/>
      <point x="1137" y="1824"/>
      <point x="1122" y="1827"/>
      <point x="1097" y="1834" type="curve" smooth="yes"/>
      <point x="1054" y="1847"/>
      <point x="1026" y="1851"/>
      <point x="973" y="1851" type="curve" smooth="yes"/>
      <point x="922" y="1851"/>
      <point x="928" y="1860"/>
      <point x="892" y="1860" type="curve" smooth="yes"/>
      <point x="863" y="1860"/>
      <point x="864" y="1851"/>
      <point x="847" y="1851" type="curve" smooth="yes"/>
      <point x="839" y="1851"/>
      <point x="829" y="1852"/>
      <point x="812" y="1857" type="curve" smooth="yes"/>
      <point x="752" y="1875"/>
      <point x="695" y="1883"/>
      <point x="638" y="1883" type="curve" smooth="yes"/>
      <point x="582" y="1883"/>
      <point x="536" y="1885"/>
      <point x="490" y="1890" type="curve" smooth="yes"/>
      <point x="451" y="1893"/>
      <point x="448" y="1911"/>
      <point x="382" y="1911" type="curve" smooth="yes"/>
      <point x="378" y="1911"/>
      <point x="374" y="1911"/>
      <point x="370" y="1911" type="curve" smooth="yes"/>
      <point x="319" y="1909"/>
      <point x="307" y="1902"/>
      <point x="296" y="1902" type="curve" smooth="yes"/>
      <point x="290" y="1902"/>
      <point x="284" y="1905"/>
      <point x="270" y="1912" type="curve" smooth="yes"/>
      <point x="244" y="1926"/>
      <point x="252" y="1932"/>
      <point x="219" y="1932" type="curve" smooth="yes"/>
      <point x="207" y="1932"/>
      <point x="190" y="1931"/>
      <point x="165" y="1930" type="curve" smooth="yes"/>
      <point x="87" y="1925"/>
      <point x="59" y="1912"/>
      <point x="37" y="1912" type="curve" smooth="yes"/>
      <point x="30" y="1912"/>
      <point x="23" y="1914"/>
      <point x="16" y="1918" type="curve" smooth="yes"/>
      <point x="-18" y="1937"/>
      <point x="-145" y="1950"/>
      <point x="-210" y="1950" type="curve" smooth="yes"/>
      <point x="-219" y="1950"/>
      <point x="-227" y="1949"/>
      <point x="-233" y="1949" type="curve" smooth="yes"/>
      <point x="-272" y="1945"/>
      <point x="-288" y="1938"/>
      <point x="-308" y="1938" type="curve" smooth="yes"/>
      <point x="-314" y="1938"/>
      <point x="-320" y="1939"/>
      <point x="-326" y="1940" type="curve" smooth="yes"/>
      <point x="-361" y="1947"/>
      <point x="-411" y="1951"/>
      <point x="-437" y="1951" type="curve" smooth="yes"/>
      <point x="-459" y="1951"/>
      <point x="-610" y="1981"/>
      <point x="-633" y="1981" type="curve" smooth="yes"/>
      <point x="-643" y="1981"/>
      <point x="-690" y="1989"/>
      <point x="-701" y="1997" type="curve"/>
      <point x="-699" y="1998"/>
      <point x="-696" y="1999"/>
      <point x="-689" y="2001" type="curve" smooth="yes"/>
      <point x="-670" y="2005"/>
      <point x="-651" y="2006"/>
      <point x="-634" y="2006" type="curve" smooth="yes"/>
      <point x="-609" y="2006"/>
      <point x="-586" y="2004"/>
      <point x="-569" y="2004" type="curve" smooth="yes"/>
      <point x="-563" y="2004"/>
      <point x="-557" y="2004"/>
      <point x="-552" y="2005" type="curve" smooth="yes"/>
      <point x="-537" y="2009"/>
      <point x="-361" y="2006"/>
      <point x="-325" y="2016" type="curve" smooth="yes"/>
      <point x="-296" y="2024"/>
      <point x="-202" y="2034"/>
      <point x="-170" y="2034" type="curve" smooth="yes"/>
      <point x="-146" y="2034"/>
      <point x="-137" y="2031"/>
      <point x="-113" y="2031" type="curve" smooth="yes"/>
      <point x="-105" y="2031"/>
      <point x="-95" y="2031"/>
      <point x="-82" y="2032" type="curve" smooth="yes"/>
      <point x="-31" y="2037"/>
      <point x="-32" y="2052"/>
      <point x="-24" y="2054" type="curve" smooth="yes"/>
      <point x="-23" y="2054"/>
      <point x="-21" y="2054"/>
      <point x="-17" y="2054" type="curve" smooth="yes"/>
      <point x="-12" y="2054"/>
      <point x="-7" y="2054"/>
      <point x="0" y="2054" type="curve" smooth="yes"/>
      <point x="33" y="2054"/>
      <point x="87" y="2056"/>
      <point x="87" y="2078" type="curve" smooth="yes"/>
      <point x="87" y="2101"/>
      <point x="35" y="2102"/>
      <point x="7" y="2102" type="curve" smooth="yes"/>
      <point x="1" y="2102" type="line" smooth="yes"/>
      <point x="-4" y="2102"/>
      <point x="-8" y="2102"/>
      <point x="-9" y="2102" type="curve" smooth="yes"/>
      <point x="-25" y="2110"/>
      <point x="-53" y="2116"/>
      <point x="-115" y="2124" type="curve" smooth="yes"/>
      <point x="-175" y="2133"/>
      <point x="-159" y="2139"/>
      <point x="-214" y="2148" type="curve" smooth="yes"/>
      <point x="-226" y="2150"/>
      <point x="-235" y="2150"/>
      <point x="-242" y="2150" type="curve" smooth="yes"/>
      <point x="-265" y="2150"/>
      <point x="-269" y="2143"/>
      <point x="-284" y="2143" type="curve" smooth="yes"/>
      <point x="-288" y="2143"/>
      <point x="-294" y="2144"/>
      <point x="-301" y="2145" type="curve" smooth="yes"/>
      <point x="-347" y="2157"/>
      <point x="-441" y="2155"/>
      <point x="-464" y="2162" type="curve" smooth="yes"/>
      <point x="-498" y="2172"/>
      <point x="-507" y="2161"/>
      <point x="-548" y="2175" type="curve" smooth="yes"/>
      <point x="-594" y="2190"/>
      <point x="-609" y="2186"/>
      <point x="-679" y="2207" type="curve" smooth="yes"/>
      <point x="-754" y="2229"/>
      <point x="-915" y="2208"/>
      <point x="-953" y="2217" type="curve" smooth="yes"/>
      <point x="-998" y="2229"/>
      <point x="-1043" y="2224"/>
      <point x="-1044" y="2224" type="curve" smooth="yes"/>
      <point x="-1047" y="2224"/>
      <point x="-1051" y="2221"/>
    </contour>
  </outline>
</glyph>
<glyph name=".notdef" format="2">
  <advance width="1200"/>
  <unicode hex="E0C9"/>
  <unicode hex="E0CB"/>
  <unicode hex="E0D3"/>
  <note>
.notdef
</note>
  <outline>
    <contour>
      <point x="1378" y="2857" type="line"/>
      <point x="-178" y="2857" type="line"/>
      <point x="-178" y="151" type="line"/>
      <point x="1378" y="151" type="line"/>
    </contour>
    <contour>
      <point x="1186" y="343" type="line"/>
      <point x="14" y="343" type="line"/>
      <point x="14" y="2665" type="line"/>
      <point x="1186" y="2665" type="line"/>
    </contour>
  </outline>
</glyph>
<glyph name="uniE0CC" format="2">
  <advance width="1200"/>
  <unicode hex="E0CC"/>
  <note>
uniE0CC
</note>
  <outline>
    <contour>
      <point x="1432" y="388" type="line"/>
      <point x="1749" y="937" type="line"/>
      <point x="1432" y="1485" type="line"/>
      <point x="799" y="1485" type="line"/>
      <point x="482" y="937" type="line"/>
      <point x="799" y="388" type="line"/>
    </contour>
    <contour>
      <point x="85" y="-397" type="line"/>
      <point x="401" y="152" type="line"/>
      <point x="85" y="700" type="line"/>
      <point x="-549" y="700" type="line"/>
      <point x="-549" y="-397" type="line"/>
    </contour>
    <contour>
      <point x="85" y="1212" type="line"/>
      <point x="401" y="1761" type="line"/>
      <point x="85" y="2309" type="line"/>
      <point x="-549" y="2309" type="line"/>
      <point x="-549" y="1212" type="line"/>
    </contour>
  </outline>
</glyph>
<glyph name="uniE0CF" format="2">
  <advance width="1200"/>
  <unicode hex="E0CF"/>
  <note>
uniE0CF
</note>
  <outline>
    <contour>
      <point x="599" y="2244" type="curve" smooth="yes"/>
      <point x="599" y="2244" type="line" smooth="yes"/>
      <point x="405" y="2244"/>
      <point x="247" y="2174"/>
      <point x="247" y="2088" type="curve" smooth="yes"/>
      <point x="247" y="2072"/>
      <point x="253" y="2057"/>
      <point x="264" y="2042" type="curve"/>
      <point x="263" y="2042" type="line"/>
      <point x="461" y="1879"/>
      <point x="849" y="1925"/>
      <point x="940" y="2057" type="curve"/>
      <point x="940" y="2050" type="line"/>
      <point x="947" y="2063"/>
      <point x="951" y="2075"/>
      <point x="951" y="2088" type="curve"/>
      <point x="951" y="2090" type="line"/>
      <point x="949" y="2175"/>
      <point x="792" y="2244"/>
    </contour>
    <contour>
      <point x="1158" y="1913" type="curve"/>
      <point x="940" y="2036" type="line"/>
      <point x="935" y="1874" type="line"/>
      <point x="809" y="1724"/>
      <point x="417" y="1695"/>
      <point x="243" y="1876" type="curve"/>
      <point x="247" y="2032" type="line"/>
      <point x="39" y="1910" type="line"/>
      <point x="20" y="1912"/>
      <point x="1" y="1913"/>
      <point x="-19" y="1913" type="curve" smooth="yes"/>
      <point x="-213" y="1913"/>
      <point x="-370" y="1843"/>
      <point x="-370" y="1757" type="curve" smooth="yes"/>
      <point x="-370" y="1737"/>
      <point x="-361" y="1717"/>
      <point x="-344" y="1699" type="curve"/>
      <point x="-143" y="1546"/>
      <point x="235" y="1592"/>
      <point x="324" y="1722" type="curve"/>
      <point x="320" y="1539" type="line"/>
      <point x="194" y="1389"/>
      <point x="-198" y="1360"/>
      <point x="-373" y="1542" type="curve"/>
      <point x="-369" y="1670" type="line"/>
      <point x="-639" y="1513" type="line"/>
      <point x="610" y="795" type="line"/>
      <point x="1858" y="1517" type="line"/>
      <point x="1570" y="1679" type="line"/>
      <point x="1567" y="1546" type="line"/>
      <point x="1441" y="1396"/>
      <point x="1049" y="1368"/>
      <point x="874" y="1549" type="curve"/>
      <point x="879" y="1727" type="line"/>
      <point x="1071" y="1551"/>
      <point x="1472" y="1594"/>
      <point x="1570" y="1726" type="curve" smooth="yes"/>
      <point x="1570" y="1727"/>
      <point x="1570" y="1727"/>
      <point x="1570" y="1727" type="curve" smooth="yes"/>
      <point x="1576" y="1738"/>
      <point x="1579" y="1749"/>
      <point x="1579" y="1761" type="curve"/>
      <point x="1579" y="1763" type="line"/>
      <point x="1577" y="1848"/>
      <point x="1420" y="1916"/>
      <point x="1227" y="1916" type="curve" smooth="yes"/>
      <point x="1203" y="1916"/>
      <point x="1180" y="1915"/>
    </contour>
    <contour>
      <point x="956" y="1367" type="curve"/>
      <point x="951" y="1184" type="line"/>
      <point x="825" y="1033"/>
      <point x="433" y="1005"/>
      <point x="259" y="1186" type="curve"/>
      <point x="263" y="1364" type="line"/>
      <point x="457" y="1187"/>
      <point x="862" y="1232"/>
    </contour>
    <contour>
      <point x="485" y="596" type="line"/>
      <point x="-678" y="1286" type="line"/>
      <point x="-685" y="203" type="line"/>
      <point x="485" y="-452" type="line"/>
    </contour>
    <contour>
      <point x="1885" y="193" type="line"/>
      <point x="1885" y="1310" type="line"/>
      <point x="715" y="586" type="line"/>
      <point x="715" y="-462" type="line"/>
    </contour>
  </outline>
</glyph>
<glyph name="uniE0D0" format="2">
  <advance width="1200"/>
  <unicode hex="E0D0"/>
  <note>
uniE0D0
</note>
  <outline>
    <contour>
      <point x="-660" y="429" type="curve" smooth="yes"/>
      <point x="-660" y="429" type="line" smooth="yes"/>
      <point x="-660" y="285"/>
      <point x="-602" y="155"/>
      <point x="-507" y="61" type="curve" smooth="yes"/>
      <point x="-405" y="-42" type="line" smooth="yes"/>
      <point x="-310" y="-136"/>
      <point x="-180" y="-194"/>
      <point x="-37" y="-194" type="curve" smooth="yes"/>
      <point x="251" y="-194"/>
      <point x="484" y="39"/>
      <point x="484" y="326" type="curve" smooth="yes"/>
      <point x="484" y="470"/>
      <point x="426" y="600"/>
      <point x="332" y="694" type="curve" smooth="yes"/>
      <point x="229" y="797" type="line" smooth="yes"/>
      <point x="135" y="891"/>
      <point x="4" y="950"/>
      <point x="-139" y="950" type="curve" smooth="yes"/>
      <point x="-427" y="950"/>
      <point x="-660" y="716"/>
    </contour>
    <contour>
      <point x="716" y="429" type="curve" smooth="yes"/>
      <point x="716" y="285"/>
      <point x="774" y="155"/>
      <point x="868" y="61" type="curve" smooth="yes"/>
      <point x="971" y="-42" type="line" smooth="yes"/>
      <point x="1065" y="-136"/>
      <point x="1196" y="-194"/>
      <point x="1339" y="-194" type="curve" smooth="yes"/>
      <point x="1627" y="-194"/>
      <point x="1860" y="39"/>
      <point x="1860" y="326" type="curve" smooth="yes"/>
      <point x="1860" y="470"/>
      <point x="1802" y="600"/>
      <point x="1707" y="694" type="curve" smooth="yes"/>
      <point x="1605" y="797" type="line" smooth="yes"/>
      <point x="1510" y="891"/>
      <point x="1380" y="950"/>
      <point x="1236" y="950" type="curve" smooth="yes"/>
      <point x="949" y="950"/>
      <point x="716" y="716"/>
    </contour>
    <contour>
      <point x="-660" y="1991" type="curve" smooth="yes"/>
      <point x="-660" y="1847"/>
      <point x="-602" y="1717"/>
      <point x="-507" y="1623" type="curve" smooth="yes"/>
      <point x="-405" y="1520" type="line" smooth="yes"/>
      <point x="-310" y="1426"/>
      <point x="-180" y="1367"/>
      <point x="-36" y="1367" type="curve" smooth="yes"/>
      <point x="251" y="1367"/>
      <point x="484" y="1601"/>
      <point x="484" y="1888" type="curve" smooth="yes"/>
      <point x="484" y="2032"/>
      <point x="426" y="2162"/>
      <point x="332" y="2256" type="curve" smooth="yes"/>
      <point x="229" y="2359" type="line" smooth="yes"/>
      <point x="135" y="2453"/>
      <point x="4" y="2512"/>
      <point x="-139" y="2512" type="curve" smooth="yes"/>
      <point x="-427" y="2512"/>
      <point x="-660" y="2278"/>
    </contour>
    <contour>
      <point x="716" y="1991" type="curve" smooth="yes"/>
      <point x="716" y="1847"/>
      <point x="774" y="1717"/>
      <point x="868" y="1623" type="curve" smooth="yes"/>
      <point x="971" y="1520" type="line" smooth="yes"/>
      <point x="1065" y="1426"/>
      <point x="1196" y="1367"/>
      <point x="1339" y="1367" type="curve" smooth="yes"/>
      <point x="1627" y="1367"/>
      <point x="1860" y="1601"/>
      <point x="1860" y="1888" type="curve" smooth="yes"/>
      <point x="1860" y="2032"/>
      <point x="1802" y="2162"/>
      <point x="1707" y="2256" type="curve" smooth="yes"/>
      <point x="1605" y="2359" type="line" smooth="yes"/>
      <point x="1510" y="2453"/>
      <point x="1380" y="2512"/>
      <point x="1236" y="2512" type="curve" smooth="yes"/>
      <point x="949" y="2512"/>
      <point x="716" y="2278"/>
    </contour>
    <contour>
      <point x="172" y="779" type="curve"/>
      <point x="165" y="787" type="line" smooth="yes"/>
      <point x="165" y="787"/>
      <point x="164" y="787"/>
      <point x="164" y="788" type="curve" smooth="yes"/>
      <point x="168" y="784"/>
      <point x="171" y="781"/>
      <point x="175" y="778" type="curve"/>
      <point x="174" y="778"/>
      <point x="173" y="779"/>
    </contour>
    <contour>
      <point x="1548" y="779" type="curve"/>
      <point x="1541" y="787" type="line" smooth="yes"/>
      <point x="1540" y="787"/>
      <point x="1540" y="787"/>
      <point x="1540" y="788" type="curve" smooth="yes"/>
      <point x="1543" y="785"/>
      <point x="1547" y="781"/>
      <point x="1551" y="778" type="curve"/>
      <point x="1550" y="778"/>
      <point x="1549" y="779"/>
    </contour>
    <contour>
      <point x="172" y="2341" type="curve"/>
      <point x="165" y="2349" type="line" smooth="yes"/>
      <point x="165" y="2349"/>
      <point x="164" y="2349"/>
      <point x="164" y="2350" type="curve" smooth="yes"/>
      <point x="168" y="2346"/>
      <point x="171" y="2343"/>
      <point x="175" y="2340" type="curve"/>
      <point x="174" y="2340"/>
      <point x="173" y="2341"/>
    </contour>
    <contour>
      <point x="1548" y="2341" type="curve"/>
      <point x="1541" y="2349" type="line" smooth="yes"/>
      <point x="1540" y="2349"/>
      <point x="1540" y="2349"/>
      <point x="1539" y="2350" type="curve" smooth="yes"/>
      <point x="1543" y="2347"/>
      <point x="1547" y="2343"/>
      <point x="1551" y="2340" type="curve"/>
      <point x="1550" y="2340"/>
      <point x="1549" y="2341"/>
    </contour>
    <contour>
      <point x="1230" y="1470" type="curve"/>
      <point x="1303" y="1398" type="line"/>
      <point x="1192" y="1406"/>
      <point x="1091" y="1451"/>
      <point x="1013" y="1521" type="curve"/>
      <point x="1079" y="1489"/>
      <point x="1153" y="1471"/>
    </contour>
    <contour>
      <point x="1345" y="1397" type="curve" smooth="yes"/>
      <point x="1345" y="1397" type="line"/>
      <point x="1270" y="1471" type="line"/>
      <point x="1531" y="1488"/>
      <point x="1739" y="1697"/>
      <point x="1756" y="1957" type="curve"/>
      <point x="1831" y="1882" type="line"/>
      <point x="1828" y="1616"/>
      <point x="1612" y="1400"/>
    </contour>
    <contour>
      <point x="1830" y="1925" type="curve"/>
      <point x="1757" y="1997" type="line"/>
      <point x="1756" y="2075"/>
      <point x="1738" y="2149"/>
      <point x="1707" y="2215" type="curve"/>
      <point x="1776" y="2136"/>
      <point x="1821" y="2036"/>
    </contour>
    <contour>
      <point x="-145" y="1470" type="curve"/>
      <point x="-73" y="1398" type="line"/>
      <point x="-184" y="1406"/>
      <point x="-285" y="1451"/>
      <point x="-363" y="1521" type="curve"/>
      <point x="-297" y="1489"/>
      <point x="-223" y="1471"/>
    </contour>
    <contour>
      <point x="-30" y="1397" type="curve" smooth="yes"/>
      <point x="-30" y="1397" type="line"/>
      <point x="-105" y="1471" type="line"/>
      <point x="155" y="1488"/>
      <point x="363" y="1697"/>
      <point x="380" y="1957" type="curve"/>
      <point x="455" y="1882" type="line"/>
      <point x="452" y="1616"/>
      <point x="236" y="1400"/>
    </contour>
    <contour>
      <point x="454" y="1925" type="curve"/>
      <point x="381" y="1997" type="line"/>
      <point x="380" y="2075"/>
      <point x="362" y="2149"/>
      <point x="331" y="2215" type="curve"/>
      <point x="401" y="2136"/>
      <point x="446" y="2036"/>
    </contour>
    <contour>
      <point x="1230" y="-92" type="curve"/>
      <point x="1303" y="-164" type="line"/>
      <point x="1192" y="-156"/>
      <point x="1091" y="-111"/>
      <point x="1013" y="-41" type="curve"/>
      <point x="1079" y="-73"/>
      <point x="1153" y="-91"/>
    </contour>
    <contour>
      <point x="1345" y="-165" type="curve"/>
      <point x="1271" y="-91" type="line"/>
      <point x="1531" y="-74"/>
      <point x="1739" y="135"/>
      <point x="1756" y="395" type="curve"/>
      <point x="1831" y="320" type="line"/>
      <point x="1828" y="54"/>
      <point x="1612" y="-162"/>
    </contour>
    <contour>
      <point x="1830" y="363" type="curve"/>
      <point x="1757" y="435" type="line"/>
      <point x="1756" y="513"/>
      <point x="1738" y="587"/>
      <point x="1707" y="653" type="curve"/>
      <point x="1776" y="574"/>
      <point x="1821" y="474"/>
    </contour>
    <contour>
      <point x="-145" y="-92" type="curve"/>
      <point x="-73" y="-164" type="line"/>
      <point x="-184" y="-156"/>
      <point x="-285" y="-111"/>
      <point x="-363" y="-41" type="curve"/>
      <point x="-297" y="-73"/>
      <point x="-223" y="-91"/>
    </contour>
    <contour>
      <point x="-30" y="-165" type="curve"/>
      <point x="-105" y="-91" type="line"/>
      <point x="155" y="-74"/>
      <point x="363" y="135"/>
      <point x="380" y="395" type="curve"/>
      <point x="455" y="320" type="line"/>
      <point x="452" y="54"/>
      <point x="236" y="-162"/>
    </contour>
    <contour>
      <point x="454" y="363" type="curve"/>
      <point x="381" y="435" type="line"/>
      <point x="380" y="513"/>
      <point x="362" y="587"/>
      <point x="331" y="653" type="curve"/>
      <point x="401" y="574"/>
      <point x="446" y="474"/>
    </contour>
    <contour>
      <point x="145" y="766" type="curve" smooth="yes"/>
      <point x="227" y="683"/>
      <point x="287" y="567"/>
      <point x="287" y="429" type="curve" smooth="yes"/>
      <point x="287" y="151"/>
      <point x="43" y="-41"/>
      <point x="-139" y="-41" type="curve" smooth="yes"/>
      <point x="-231" y="-41"/>
      <point x="-339" y="8"/>
      <point x="-423" y="92" type="curve" smooth="yes"/>
      <point x="-506" y="175"/>
      <point x="-565" y="292"/>
      <point x="-565" y="429" type="curve" smooth="yes"/>
      <point x="-565" y="707"/>
      <point x="-322" y="899"/>
      <point x="-139" y="899" type="curve" smooth="yes"/>
      <point x="-48" y="899"/>
      <point x="60" y="850"/>
    </contour>
    <contour>
      <point x="-594" y="420" type="curve"/>
      <point x="-609" y="435" type="line"/>
      <point x="-607" y="575"/>
      <point x="-544" y="701"/>
      <point x="-445" y="786" type="curve"/>
      <point x="-532" y="698"/>
      <point x="-594" y="575"/>
      <point x="-594" y="429" type="curve" smooth="yes"/>
      <point x="-594" y="426"/>
      <point x="-594" y="423"/>
    </contour>
    <contour>
      <point x="-608" y="393" type="curve"/>
      <point x="-592" y="377" type="line"/>
      <point x="-582" y="283"/>
      <point x="-546" y="201"/>
      <point x="-496" y="133" type="curve"/>
      <point x="-494" y="127"/>
      <point x="-491" y="121"/>
      <point x="-488" y="115" type="curve"/>
      <point x="-556" y="190"/>
      <point x="-599" y="286"/>
    </contour>
    <contour>
      <point x="315" y="395" type="curve"/>
      <point x="328" y="382" type="line"/>
      <point x="316" y="258"/>
      <point x="255" y="149"/>
      <point x="166" y="72" type="curve"/>
      <point x="247" y="153"/>
      <point x="306" y="264"/>
    </contour>
    <contour>
      <point x="330" y="421" type="curve"/>
      <point x="316" y="435" type="line"/>
      <point x="315" y="510"/>
      <point x="297" y="580"/>
      <point x="268" y="641" type="curve"/>
      <point x="278" y="631"/>
      <point x="287" y="619"/>
      <point x="295" y="608" type="curve"/>
      <point x="318" y="553"/>
      <point x="330" y="492"/>
      <point x="330" y="429" type="curve" smooth="yes"/>
      <point x="330" y="426"/>
      <point x="330" y="423"/>
    </contour>
    <contour>
      <point x="1520" y="766" type="curve" smooth="yes"/>
      <point x="1603" y="683"/>
      <point x="1663" y="567"/>
      <point x="1663" y="429" type="curve" smooth="yes"/>
      <point x="1663" y="151"/>
      <point x="1419" y="-41"/>
      <point x="1237" y="-41" type="curve" smooth="yes"/>
      <point x="1145" y="-41"/>
      <point x="1037" y="8"/>
      <point x="953" y="92" type="curve" smooth="yes"/>
      <point x="870" y="175"/>
      <point x="810" y="292"/>
      <point x="810" y="429" type="curve" smooth="yes"/>
      <point x="810" y="707"/>
      <point x="1054" y="899"/>
      <point x="1237" y="899" type="curve" smooth="yes"/>
      <point x="1328" y="899"/>
      <point x="1436" y="850"/>
    </contour>
    <contour>
      <point x="781" y="420" type="curve"/>
      <point x="767" y="435" type="line"/>
      <point x="769" y="575"/>
      <point x="832" y="701"/>
      <point x="931" y="786" type="curve"/>
      <point x="844" y="698"/>
      <point x="781" y="575"/>
      <point x="781" y="429" type="curve" smooth="yes"/>
      <point x="781" y="426"/>
      <point x="781" y="423"/>
    </contour>
    <contour>
      <point x="768" y="393" type="curve"/>
      <point x="784" y="377" type="line"/>
      <point x="794" y="283"/>
      <point x="830" y="201"/>
      <point x="879" y="133" type="curve"/>
      <point x="882" y="127"/>
      <point x="885" y="121"/>
      <point x="888" y="115" type="curve"/>
      <point x="820" y="190"/>
      <point x="776" y="286"/>
    </contour>
    <contour>
      <point x="1691" y="395" type="curve"/>
      <point x="1704" y="382" type="line"/>
      <point x="1692" y="258"/>
      <point x="1631" y="149"/>
      <point x="1542" y="72" type="curve"/>
      <point x="1622" y="153"/>
      <point x="1682" y="264"/>
    </contour>
    <contour>
      <point x="1706" y="421" type="curve"/>
      <point x="1692" y="435" type="line"/>
      <point x="1691" y="511"/>
      <point x="1673" y="580"/>
      <point x="1644" y="641" type="curve"/>
      <point x="1653" y="631"/>
      <point x="1662" y="620"/>
      <point x="1671" y="608" type="curve"/>
      <point x="1694" y="553"/>
      <point x="1706" y="492"/>
      <point x="1706" y="429" type="curve" smooth="yes"/>
      <point x="1706" y="426"/>
      <point x="1706" y="423"/>
    </contour>
    <contour>
      <point x="145" y="2328" type="curve" smooth="yes"/>
      <point x="227" y="2245"/>
      <point x="287" y="2128"/>
      <point x="287" y="1991" type="curve" smooth="yes"/>
      <point x="287" y="1713"/>
      <point x="43" y="1521"/>
      <point x="-139" y="1521" type="curve" smooth="yes"/>
      <point x="-231" y="1521"/>
      <point x="-339" y="1570"/>
      <point x="-423" y="1654" type="curve" smooth="yes"/>
      <point x="-506" y="1737"/>
      <point x="-565" y="1853"/>
      <point x="-565" y="1991" type="curve" smooth="yes"/>
      <point x="-565" y="2269"/>
      <point x="-322" y="2461"/>
      <point x="-139" y="2461" type="curve" smooth="yes"/>
      <point x="-48" y="2461"/>
      <point x="60" y="2412"/>
    </contour>
    <contour>
      <point x="-594" y="1982" type="curve" smooth="yes"/>
      <point x="-594" y="1982" type="line"/>
      <point x="-609" y="1997" type="line"/>
      <point x="-607" y="2137"/>
      <point x="-544" y="2263"/>
      <point x="-445" y="2348" type="curve"/>
      <point x="-532" y="2260"/>
      <point x="-594" y="2137"/>
      <point x="-594" y="1991" type="curve" smooth="yes"/>
      <point x="-594" y="1988"/>
      <point x="-594" y="1985"/>
    </contour>
    <contour>
      <point x="-608" y="1954" type="curve"/>
      <point x="-592" y="1939" type="line"/>
      <point x="-582" y="1845"/>
      <point x="-546" y="1763"/>
      <point x="-496" y="1695" type="curve"/>
      <point x="-494" y="1689"/>
      <point x="-491" y="1683"/>
      <point x="-488" y="1677" type="curve"/>
      <point x="-556" y="1752"/>
      <point x="-599" y="1848"/>
    </contour>
    <contour>
      <point x="315" y="1957" type="curve"/>
      <point x="328" y="1944" type="line"/>
      <point x="316" y="1820"/>
      <point x="255" y="1711"/>
      <point x="166" y="1634" type="curve"/>
      <point x="247" y="1715"/>
      <point x="306" y="1826"/>
    </contour>
    <contour>
      <point x="330" y="1983" type="curve"/>
      <point x="316" y="1997" type="line"/>
      <point x="315" y="2072"/>
      <point x="297" y="2142"/>
      <point x="268" y="2203" type="curve"/>
      <point x="278" y="2192"/>
      <point x="287" y="2181"/>
      <point x="295" y="2170" type="curve"/>
      <point x="318" y="2115"/>
      <point x="330" y="2054"/>
      <point x="330" y="1991" type="curve" smooth="yes"/>
      <point x="330" y="1988"/>
      <point x="330" y="1985"/>
    </contour>
    <contour>
      <point x="1520" y="2328" type="curve" smooth="yes"/>
      <point x="1603" y="2245"/>
      <point x="1663" y="2129"/>
      <point x="1663" y="1991" type="curve" smooth="yes"/>
      <point x="1663" y="1713"/>
      <point x="1419" y="1521"/>
      <point x="1237" y="1521" type="curve" smooth="yes"/>
      <point x="1145" y="1521"/>
      <point x="1037" y="1570"/>
      <point x="953" y="1654" type="curve" smooth="yes"/>
      <point x="870" y="1737"/>
      <point x="810" y="1853"/>
      <point x="810" y="1991" type="curve" smooth="yes"/>
      <point x="810" y="2269"/>
      <point x="1054" y="2461"/>
      <point x="1237" y="2461" type="curve" smooth="yes"/>
      <point x="1328" y="2461"/>
      <point x="1436" y="2412"/>
    </contour>
    <contour>
      <point x="781" y="1982" type="curve"/>
      <point x="767" y="1997" type="line"/>
      <point x="769" y="2138"/>
      <point x="832" y="2263"/>
      <point x="932" y="2348" type="curve"/>
      <point x="844" y="2260"/>
      <point x="781" y="2137"/>
      <point x="781" y="1991" type="curve" smooth="yes"/>
      <point x="781" y="1988"/>
      <point x="781" y="1985"/>
    </contour>
    <contour>
      <point x="768" y="1955" type="curve"/>
      <point x="784" y="1939" type="line"/>
      <point x="794" y="1845"/>
      <point x="829" y="1763"/>
      <point x="879" y="1695" type="curve"/>
      <point x="882" y="1689"/>
      <point x="885" y="1683"/>
      <point x="887" y="1677" type="curve"/>
      <point x="820" y="1752"/>
      <point x="776" y="1848"/>
    </contour>
    <contour>
      <point x="1691" y="1957" type="curve"/>
      <point x="1704" y="1944" type="line"/>
      <point x="1692" y="1820"/>
      <point x="1631" y="1711"/>
      <point x="1542" y="1634" type="curve"/>
      <point x="1622" y="1715"/>
      <point x="1682" y="1826"/>
    </contour>
    <contour>
      <point x="1706" y="1983" type="curve"/>
      <point x="1692" y="1997" type="line"/>
      <point x="1691" y="2072"/>
      <point x="1673" y="2142"/>
      <point x="1644" y="2203" type="curve"/>
      <point x="1653" y="2193"/>
      <point x="1662" y="2181"/>
      <point x="1671" y="2170" type="curve"/>
      <point x="1694" y="2115"/>
      <point x="1706" y="2054"/>
      <point x="1706" y="1991" type="curve" smooth="yes"/>
      <point x="1706" y="1988"/>
      <point x="1706" y="1985"/>
    </contour>
  </outline>
</glyph>
